<?xml version="1.0" encoding="UTF-8" standalone="no"?>
<!DOCTYPE svg PUBLIC "-//W3C//DTD SVG 1.1//EN"
 "http://www.w3.org/Graphics/SVG/1.1/DTD/svg11.dtd">
<!-- Generated by graphviz version 2.40.1 (20161225.0304)
 -->
<!-- Title: G Pages: 1 -->
<svg width="618pt" height="853pt"
 viewBox="0.00 0.00 617.83 853.00" xmlns="http://www.w3.org/2000/svg" xmlns:xlink="http://www.w3.org/1999/xlink">
<g id="graph0" class="graph" transform="scale(1 1) rotate(0) translate(4 849)">
<title>G</title>
<polygon fill="#ffffff" stroke="transparent" points="-4,4 -4,-849 613.829,-849 613.829,4 -4,4"/>
<!-- A0 -->
<g id="node1" class="node">
<title>A0</title>
<polygon fill="none" stroke="#000000" points="169.684,-353.5 169.684,-413.5 276.031,-413.5 276.031,-353.5 169.684,-353.5"/>
<text text-anchor="middle" x="222.8575" y="-400.5" font-family="Helvetica,sans-Serif" font-size="10.00" fill="#000000">Recommendation</text>
<polyline fill="none" stroke="#000000" points="169.684,-393.5 276.031,-393.5 "/>
<text text-anchor="middle" x="222.8575" y="-380.5" font-family="Helvetica,sans-Serif" font-size="10.00" fill="#000000">id (PK) </text>
<polyline fill="none" stroke="#000000" points="169.684,-373.5 276.031,-373.5 "/>
<text text-anchor="middle" x="222.8575" y="-360.5" font-family="Helvetica,sans-Serif" font-size="10.00" fill="#000000">date (timestamp)</text>
</g>
<!-- A8 -->
<g id="node9" class="node">
<title>A8</title>
<polygon fill="none" stroke="#000000" points="333.53,-393.5 333.53,-465.5 465.442,-465.5 465.442,-393.5 333.53,-393.5"/>
<text text-anchor="middle" x="399.486" y="-452.5" font-family="Helvetica,sans-Serif" font-size="10.00" fill="#000000">Recommendation_Tag </text>
<polyline fill="none" stroke="#000000" points="333.53,-445.5 465.442,-445.5 "/>
<text text-anchor="middle" x="399.486" y="-432.5" font-family="Helvetica,sans-Serif" font-size="10.00" fill="#000000">recommendation_id</text>
<text text-anchor="middle" x="399.486" y="-420.5" font-family="Helvetica,sans-Serif" font-size="10.00" fill="#000000">(FK)</text>
<polyline fill="none" stroke="#000000" points="333.53,-413.5 465.442,-413.5 "/>
<text text-anchor="middle" x="399.486" y="-400.5" font-family="Helvetica,sans-Serif" font-size="10.00" fill="#000000">tag_id (FK)</text>
</g>
<!-- A0&#45;&gt;A8 -->
<g id="edge5" class="edge">
<title>A0&#45;&gt;A8</title>
<path fill="none" stroke="#000000" d="M276.3312,-397.4263C294.303,-402.1068 314.5673,-407.3843 333.3913,-412.2867"/>
<text text-anchor="middle" x="313.72" y="-412.898" font-family="Helvetica,sans-Serif" font-size="10.00" fill="#000000">*</text>
<text text-anchor="middle" x="296.0025" y="-390.8151" font-family="Helvetica,sans-Serif" font-size="10.00" fill="#000000">1</text>
</g>
<!-- A9 -->
<g id="node10" class="node">
<title>A9</title>
<polygon fill="none" stroke="#000000" points="326.031,-302.5 326.031,-374.5 472.941,-374.5 472.941,-302.5 326.031,-302.5"/>
<text text-anchor="middle" x="399.486" y="-361.5" font-family="Helvetica,sans-Serif" font-size="10.00" fill="#000000">Recommendation_Course </text>
<polyline fill="none" stroke="#000000" points="326.031,-354.5 472.941,-354.5 "/>
<text text-anchor="middle" x="399.486" y="-341.5" font-family="Helvetica,sans-Serif" font-size="10.00" fill="#000000">recommendation_id</text>
<text text-anchor="middle" x="399.486" y="-329.5" font-family="Helvetica,sans-Serif" font-size="10.00" fill="#000000">(FK)</text>
<polyline fill="none" stroke="#000000" points="326.031,-322.5 472.941,-322.5 "/>
<text text-anchor="middle" x="399.486" y="-309.5" font-family="Helvetica,sans-Serif" font-size="10.00" fill="#000000">course_id (FK)</text>
</g>
<!-- A0&#45;&gt;A9 -->
<g id="edge7" class="edge">
<title>A0&#45;&gt;A9</title>
<path fill="none" stroke="#000000" d="M276.3312,-369.8764C291.9677,-365.8927 309.3396,-361.4668 325.9884,-357.2251"/>
<text text-anchor="middle" x="310.5101" y="-366.8909" font-family="Helvetica,sans-Serif" font-size="10.00" fill="#000000">*</text>
<text text-anchor="middle" x="291.8095" y="-354.2106" font-family="Helvetica,sans-Serif" font-size="10.00" fill="#000000">1</text>
</g>
<!-- A1 -->
<g id="node2" class="node">
<title>A1</title>
<polygon fill="none" stroke="#000000" points="522.941,-399.5 522.941,-459.5 609.829,-459.5 609.829,-399.5 522.941,-399.5"/>
<text text-anchor="middle" x="566.385" y="-446.5" font-family="Helvetica,sans-Serif" font-size="10.00" fill="#000000">Tag</text>
<polyline fill="none" stroke="#000000" points="522.941,-439.5 609.829,-439.5 "/>
<text text-anchor="middle" x="566.385" y="-426.5" font-family="Helvetica,sans-Serif" font-size="10.00" fill="#000000">id (PK) </text>
<polyline fill="none" stroke="#000000" points="522.941,-419.5 609.829,-419.5 "/>
<text text-anchor="middle" x="566.385" y="-406.5" font-family="Helvetica,sans-Serif" font-size="10.00" fill="#000000">name (string)</text>
</g>
<!-- A2 -->
<g id="node3" class="node">
<title>A2</title>
<polygon fill="none" stroke="#000000" points="522.941,-308.5 522.941,-368.5 609.829,-368.5 609.829,-308.5 522.941,-308.5"/>
<text text-anchor="middle" x="566.385" y="-355.5" font-family="Helvetica,sans-Serif" font-size="10.00" fill="#000000">Course</text>
<polyline fill="none" stroke="#000000" points="522.941,-348.5 609.829,-348.5 "/>
<text text-anchor="middle" x="566.385" y="-335.5" font-family="Helvetica,sans-Serif" font-size="10.00" fill="#000000">id (PK) </text>
<polyline fill="none" stroke="#000000" points="522.941,-328.5 609.829,-328.5 "/>
<text text-anchor="middle" x="566.385" y="-315.5" font-family="Helvetica,sans-Serif" font-size="10.00" fill="#000000">name (string)</text>
</g>
<!-- A3 -->
<g id="node4" class="node">
<title>A3</title>
<polygon fill="none" stroke="#000000" points="0,-561.5 0,-745.5 119.684,-745.5 119.684,-561.5 0,-561.5"/>
<text text-anchor="middle" x="59.842" y="-732.5" font-family="Helvetica,sans-Serif" font-size="10.00" fill="#000000">Book</text>
<polyline fill="none" stroke="#000000" points="0,-725.5 119.684,-725.5 "/>
<text text-anchor="middle" x="59.842" y="-712.5" font-family="Helvetica,sans-Serif" font-size="10.00" fill="#000000">id (PK) </text>
<polyline fill="none" stroke="#000000" points="0,-705.5 119.684,-705.5 "/>
<text text-anchor="middle" x="59.842" y="-692.5" font-family="Helvetica,sans-Serif" font-size="10.00" fill="#000000">Recommendation_id</text>
<text text-anchor="middle" x="59.842" y="-680.5" font-family="Helvetica,sans-Serif" font-size="10.00" fill="#000000">(FK) </text>
<polyline fill="none" stroke="#000000" points="0,-673.5 119.684,-673.5 "/>
<text text-anchor="middle" x="59.842" y="-660.5" font-family="Helvetica,sans-Serif" font-size="10.00" fill="#000000">author (string) </text>
<polyline fill="none" stroke="#000000" points="0,-653.5 119.684,-653.5 "/>
<text text-anchor="middle" x="59.842" y="-640.5" font-family="Helvetica,sans-Serif" font-size="10.00" fill="#000000">title (string) </text>
<polyline fill="none" stroke="#000000" points="0,-633.5 119.684,-633.5 "/>
<text text-anchor="middle" x="59.842" y="-620.5" font-family="Helvetica,sans-Serif" font-size="10.00" fill="#000000">type (string) </text>
<polyline fill="none" stroke="#000000" points="0,-613.5 119.684,-613.5 "/>
<text text-anchor="middle" x="59.842" y="-600.5" font-family="Helvetica,sans-Serif" font-size="10.00" fill="#000000">ISBN (string) </text>
<polyline fill="none" stroke="#000000" points="0,-593.5 119.684,-593.5 "/>
<text text-anchor="middle" x="59.842" y="-580.5" font-family="Helvetica,sans-Serif" font-size="10.00" fill="#000000">description</text>
<text text-anchor="middle" x="59.842" y="-568.5" font-family="Helvetica,sans-Serif" font-size="10.00" fill="#000000">(string)</text>
</g>
<!-- A3&#45;&gt;A0 -->
<g id="edge1" class="edge">
<title>A3&#45;&gt;A0</title>
<path fill="none" stroke="#000000" d="M115.4867,-561.3365C146.57,-509.8539 183.2514,-449.0989 204.6953,-413.5817"/>
<text text-anchor="middle" x="202.5624" y="-430.4677" font-family="Helvetica,sans-Serif" font-size="10.00" fill="#000000">1</text>
<text text-anchor="middle" x="117.6196" y="-538.4505" font-family="Helvetica,sans-Serif" font-size="10.00" fill="#000000">1</text>
</g>
<!-- A4 -->
<g id="node5" class="node">
<title>A4</title>
<polygon fill="none" stroke="#000000" points="0,-398.5 0,-542.5 119.684,-542.5 119.684,-398.5 0,-398.5"/>
<text text-anchor="middle" x="59.842" y="-529.5" font-family="Helvetica,sans-Serif" font-size="10.00" fill="#000000">Video</text>
<polyline fill="none" stroke="#000000" points="0,-522.5 119.684,-522.5 "/>
<text text-anchor="middle" x="59.842" y="-509.5" font-family="Helvetica,sans-Serif" font-size="10.00" fill="#000000">id (PK) </text>
<polyline fill="none" stroke="#000000" points="0,-502.5 119.684,-502.5 "/>
<text text-anchor="middle" x="59.842" y="-489.5" font-family="Helvetica,sans-Serif" font-size="10.00" fill="#000000">Recommendation_id</text>
<text text-anchor="middle" x="59.842" y="-477.5" font-family="Helvetica,sans-Serif" font-size="10.00" fill="#000000">(FK) </text>
<polyline fill="none" stroke="#000000" points="0,-470.5 119.684,-470.5 "/>
<text text-anchor="middle" x="59.842" y="-457.5" font-family="Helvetica,sans-Serif" font-size="10.00" fill="#000000">title (string) </text>
<polyline fill="none" stroke="#000000" points="0,-450.5 119.684,-450.5 "/>
<text text-anchor="middle" x="59.842" y="-437.5" font-family="Helvetica,sans-Serif" font-size="10.00" fill="#000000">url (string) </text>
<polyline fill="none" stroke="#000000" points="0,-430.5 119.684,-430.5 "/>
<text text-anchor="middle" x="59.842" y="-417.5" font-family="Helvetica,sans-Serif" font-size="10.00" fill="#000000">description</text>
<text text-anchor="middle" x="59.842" y="-405.5" font-family="Helvetica,sans-Serif" font-size="10.00" fill="#000000">(string)</text>
</g>
<!-- A4&#45;&gt;A0 -->
<g id="edge2" class="edge">
<title>A4&#45;&gt;A0</title>
<path fill="none" stroke="#000000" d="M120.0798,-438.3516C136.3146,-429.6872 153.7599,-420.3768 169.585,-411.9311"/>
<text text-anchor="middle" x="157.5734" y="-424.9224" font-family="Helvetica,sans-Serif" font-size="10.00" fill="#000000">1</text>
<text text-anchor="middle" x="132.0914" y="-419.3603" font-family="Helvetica,sans-Serif" font-size="10.00" fill="#000000">1</text>
</g>
<!-- A5 -->
<g id="node6" class="node">
<title>A5</title>
<polygon fill="none" stroke="#000000" points="0,-215.5 0,-379.5 119.684,-379.5 119.684,-215.5 0,-215.5"/>
<text text-anchor="middle" x="59.842" y="-366.5" font-family="Helvetica,sans-Serif" font-size="10.00" fill="#000000">Blogpost</text>
<polyline fill="none" stroke="#000000" points="0,-359.5 119.684,-359.5 "/>
<text text-anchor="middle" x="59.842" y="-346.5" font-family="Helvetica,sans-Serif" font-size="10.00" fill="#000000">id (PK) </text>
<polyline fill="none" stroke="#000000" points="0,-339.5 119.684,-339.5 "/>
<text text-anchor="middle" x="59.842" y="-326.5" font-family="Helvetica,sans-Serif" font-size="10.00" fill="#000000">Recommendation_id</text>
<text text-anchor="middle" x="59.842" y="-314.5" font-family="Helvetica,sans-Serif" font-size="10.00" fill="#000000">(FK) </text>
<polyline fill="none" stroke="#000000" points="0,-307.5 119.684,-307.5 "/>
<text text-anchor="middle" x="59.842" y="-294.5" font-family="Helvetica,sans-Serif" font-size="10.00" fill="#000000">title (string) </text>
<polyline fill="none" stroke="#000000" points="0,-287.5 119.684,-287.5 "/>
<text text-anchor="middle" x="59.842" y="-274.5" font-family="Helvetica,sans-Serif" font-size="10.00" fill="#000000">writer (string) </text>
<polyline fill="none" stroke="#000000" points="0,-267.5 119.684,-267.5 "/>
<text text-anchor="middle" x="59.842" y="-254.5" font-family="Helvetica,sans-Serif" font-size="10.00" fill="#000000">url (string) </text>
<polyline fill="none" stroke="#000000" points="0,-247.5 119.684,-247.5 "/>
<text text-anchor="middle" x="59.842" y="-234.5" font-family="Helvetica,sans-Serif" font-size="10.00" fill="#000000">description</text>
<text text-anchor="middle" x="59.842" y="-222.5" font-family="Helvetica,sans-Serif" font-size="10.00" fill="#000000">(string)</text>
</g>
<!-- A5&#45;&gt;A0 -->
<g id="edge3" class="edge">
<title>A5&#45;&gt;A0</title>
<path fill="none" stroke="#000000" d="M120.0798,-329.2789C136.3146,-337.8437 153.7599,-347.0471 169.585,-355.3957"/>
<text text-anchor="middle" x="149.6091" y="-351.4138" font-family="Helvetica,sans-Serif" font-size="10.00" fill="#000000">1</text>
<text text-anchor="middle" x="140.0557" y="-327.2608" font-family="Helvetica,sans-Serif" font-size="10.00" fill="#000000">1</text>
</g>
<!-- A6 -->
<g id="node7" class="node">
<title>A6</title>
<polygon fill="none" stroke="#000000" points="0,-.5 0,-196.5 119.684,-196.5 119.684,-.5 0,-.5"/>
<text text-anchor="middle" x="59.842" y="-183.5" font-family="Helvetica,sans-Serif" font-size="10.00" fill="#000000">Podcast</text>
<polyline fill="none" stroke="#000000" points="0,-176.5 119.684,-176.5 "/>
<text text-anchor="middle" x="59.842" y="-163.5" font-family="Helvetica,sans-Serif" font-size="10.00" fill="#000000">id (PK)</text>
<polyline fill="none" stroke="#000000" points="0,-156.5 119.684,-156.5 "/>
<text text-anchor="middle" x="59.842" y="-143.5" font-family="Helvetica,sans-Serif" font-size="10.00" fill="#000000">Recommendation_id</text>
<text text-anchor="middle" x="59.842" y="-131.5" font-family="Helvetica,sans-Serif" font-size="10.00" fill="#000000">(FK) </text>
<polyline fill="none" stroke="#000000" points="0,-124.5 119.684,-124.5 "/>
<text text-anchor="middle" x="59.842" y="-111.5" font-family="Helvetica,sans-Serif" font-size="10.00" fill="#000000">author (string)</text>
<polyline fill="none" stroke="#000000" points="0,-104.5 119.684,-104.5 "/>
<text text-anchor="middle" x="59.842" y="-91.5" font-family="Helvetica,sans-Serif" font-size="10.00" fill="#000000">title (string)</text>
<polyline fill="none" stroke="#000000" points="0,-84.5 119.684,-84.5 "/>
<text text-anchor="middle" x="59.842" y="-71.5" font-family="Helvetica,sans-Serif" font-size="10.00" fill="#000000">description</text>
<text text-anchor="middle" x="59.842" y="-59.5" font-family="Helvetica,sans-Serif" font-size="10.00" fill="#000000">(string)</text>
<polyline fill="none" stroke="#000000" points="0,-52.5 119.684,-52.5 "/>
<text text-anchor="middle" x="59.842" y="-39.5" font-family="Helvetica,sans-Serif" font-size="10.00" fill="#000000">url (string) </text>
<polyline fill="none" stroke="#000000" points="0,-32.5 119.684,-32.5 "/>
<text text-anchor="middle" x="59.842" y="-19.5" font-family="Helvetica,sans-Serif" font-size="10.00" fill="#000000">releaseDate</text>
<text text-anchor="middle" x="59.842" y="-7.5" font-family="Helvetica,sans-Serif" font-size="10.00" fill="#000000">(timestamp)</text>
</g>
<!-- A6&#45;&gt;A0 -->
<g id="edge4" class="edge">
<title>A6&#45;&gt;A0</title>
<path fill="none" stroke="#000000" d="M115.9427,-196.5808C147.3484,-251.4874 184.3456,-316.1697 205.5555,-353.2509"/>
<text text-anchor="middle" x="189.2189" y="-338.7134" font-family="Helvetica,sans-Serif" font-size="10.00" fill="#000000">1</text>
<text text-anchor="middle" x="132.2793" y="-205.1184" font-family="Helvetica,sans-Serif" font-size="10.00" fill="#000000">1</text>
</g>
<!-- A7 -->
<g id="node8" class="node">
<title>A7</title>
<polygon fill="none" stroke="#000000" points="7.509,-764.5 7.509,-844.5 112.175,-844.5 112.175,-764.5 7.509,-764.5"/>
<text text-anchor="middle" x="59.842" y="-831.5" font-family="Helvetica,sans-Serif" font-size="10.00" fill="#000000">User</text>
<polyline fill="none" stroke="#000000" points="7.509,-824.5 112.175,-824.5 "/>
<text text-anchor="middle" x="59.842" y="-811.5" font-family="Helvetica,sans-Serif" font-size="10.00" fill="#000000">id (PK) </text>
<polyline fill="none" stroke="#000000" points="7.509,-804.5 112.175,-804.5 "/>
<text text-anchor="middle" x="59.842" y="-791.5" font-family="Helvetica,sans-Serif" font-size="10.00" fill="#000000">email (string) </text>
<polyline fill="none" stroke="#000000" points="7.509,-784.5 112.175,-784.5 "/>
<text text-anchor="middle" x="59.842" y="-771.5" font-family="Helvetica,sans-Serif" font-size="10.00" fill="#000000">password (string)</text>
</g>
<!-- A8&#45;&gt;A1 -->
<g id="edge6" class="edge">
<title>A8&#45;&gt;A1</title>
<path fill="none" stroke="#000000" d="M465.4489,-429.5C484.7654,-429.5 505.3907,-429.5 522.9291,-429.5"/>
<text text-anchor="middle" x="504.803" y="-434.9524" font-family="Helvetica,sans-Serif" font-size="10.00" fill="#000000">1</text>
<text text-anchor="middle" x="483.5751" y="-418.0476" font-family="Helvetica,sans-Serif" font-size="10.00" fill="#000000">*</text>
</g>
<!-- A9&#45;&gt;A2 -->
<g id="edge8" class="edge">
<title>A9&#45;&gt;A2</title>
<path fill="none" stroke="#000000" d="M473.1762,-338.5C490.117,-338.5 507.6019,-338.5 522.7863,-338.5"/>
<text text-anchor="middle" x="504.6601" y="-343.9524" font-family="Helvetica,sans-Serif" font-size="10.00" fill="#000000">1</text>
<text text-anchor="middle" x="491.3023" y="-327.0476" font-family="Helvetica,sans-Serif" font-size="10.00" fill="#000000">*</text>
</g>
</g>
</svg>
