<?xml version="1.0" encoding="UTF-8" standalone="no"?>
<!DOCTYPE svg PUBLIC "-//W3C//DTD SVG 1.1//EN"
 "http://www.w3.org/Graphics/SVG/1.1/DTD/svg11.dtd">
<!-- Generated by graphviz version 2.40.1 (20161225.0304)
 -->
<!-- Title: G Pages: 1 -->
<svg width="618pt" height="873pt"
 viewBox="0.00 0.00 617.83 873.00" xmlns="http://www.w3.org/2000/svg" xmlns:xlink="http://www.w3.org/1999/xlink">
<g id="graph0" class="graph" transform="scale(1 1) rotate(0) translate(4 869)">
<title>G</title>
<polygon fill="#ffffff" stroke="transparent" points="-4,4 -4,-869 613.829,-869 613.829,4 -4,4"/>
<!-- A0 -->
<g id="node1" class="node">
<title>A0</title>
<polygon fill="none" stroke="#000000" points="169.684,-358.5 169.684,-418.5 276.031,-418.5 276.031,-358.5 169.684,-358.5"/>
<text text-anchor="middle" x="222.8575" y="-405.5" font-family="Helvetica,sans-Serif" font-size="10.00" fill="#000000">Recommendation</text>
<polyline fill="none" stroke="#000000" points="169.684,-398.5 276.031,-398.5 "/>
<text text-anchor="middle" x="222.8575" y="-385.5" font-family="Helvetica,sans-Serif" font-size="10.00" fill="#000000">id (PK) </text>
<polyline fill="none" stroke="#000000" points="169.684,-378.5 276.031,-378.5 "/>
<text text-anchor="middle" x="222.8575" y="-365.5" font-family="Helvetica,sans-Serif" font-size="10.00" fill="#000000">date (timestamp)</text>
</g>
<!-- A8 -->
<g id="node9" class="node">
<title>A8</title>
<polygon fill="none" stroke="#000000" points="333.53,-398.5 333.53,-470.5 465.442,-470.5 465.442,-398.5 333.53,-398.5"/>
<text text-anchor="middle" x="399.486" y="-457.5" font-family="Helvetica,sans-Serif" font-size="10.00" fill="#000000">Recommendation_Tag </text>
<polyline fill="none" stroke="#000000" points="333.53,-450.5 465.442,-450.5 "/>
<text text-anchor="middle" x="399.486" y="-437.5" font-family="Helvetica,sans-Serif" font-size="10.00" fill="#000000">recommendation_id</text>
<text text-anchor="middle" x="399.486" y="-425.5" font-family="Helvetica,sans-Serif" font-size="10.00" fill="#000000">(FK)</text>
<polyline fill="none" stroke="#000000" points="333.53,-418.5 465.442,-418.5 "/>
<text text-anchor="middle" x="399.486" y="-405.5" font-family="Helvetica,sans-Serif" font-size="10.00" fill="#000000">tag_id (FK)</text>
</g>
<!-- A0&#45;&gt;A8 -->
<g id="edge5" class="edge">
<title>A0&#45;&gt;A8</title>
<path fill="none" stroke="#000000" d="M276.3312,-402.4263C294.303,-407.1068 314.5673,-412.3843 333.3913,-417.2867"/>
<text text-anchor="middle" x="313.72" y="-417.898" font-family="Helvetica,sans-Serif" font-size="10.00" fill="#000000">*</text>
<text text-anchor="middle" x="296.0025" y="-395.8151" font-family="Helvetica,sans-Serif" font-size="10.00" fill="#000000">1</text>
</g>
<!-- A9 -->
<g id="node10" class="node">
<title>A9</title>
<polygon fill="none" stroke="#000000" points="326.031,-307.5 326.031,-379.5 472.941,-379.5 472.941,-307.5 326.031,-307.5"/>
<text text-anchor="middle" x="399.486" y="-366.5" font-family="Helvetica,sans-Serif" font-size="10.00" fill="#000000">Recommendation_Course </text>
<polyline fill="none" stroke="#000000" points="326.031,-359.5 472.941,-359.5 "/>
<text text-anchor="middle" x="399.486" y="-346.5" font-family="Helvetica,sans-Serif" font-size="10.00" fill="#000000">recommendation_id</text>
<text text-anchor="middle" x="399.486" y="-334.5" font-family="Helvetica,sans-Serif" font-size="10.00" fill="#000000">(FK)</text>
<polyline fill="none" stroke="#000000" points="326.031,-327.5 472.941,-327.5 "/>
<text text-anchor="middle" x="399.486" y="-314.5" font-family="Helvetica,sans-Serif" font-size="10.00" fill="#000000">course_id (FK)</text>
</g>
<!-- A0&#45;&gt;A9 -->
<g id="edge7" class="edge">
<title>A0&#45;&gt;A9</title>
<path fill="none" stroke="#000000" d="M276.3312,-374.8764C291.9677,-370.8927 309.3396,-366.4668 325.9884,-362.2251"/>
<text text-anchor="middle" x="310.5101" y="-371.8909" font-family="Helvetica,sans-Serif" font-size="10.00" fill="#000000">*</text>
<text text-anchor="middle" x="291.8095" y="-359.2106" font-family="Helvetica,sans-Serif" font-size="10.00" fill="#000000">1</text>
</g>
<!-- A1 -->
<g id="node2" class="node">
<title>A1</title>
<polygon fill="none" stroke="#000000" points="522.941,-404.5 522.941,-464.5 609.829,-464.5 609.829,-404.5 522.941,-404.5"/>
<text text-anchor="middle" x="566.385" y="-451.5" font-family="Helvetica,sans-Serif" font-size="10.00" fill="#000000">Tag</text>
<polyline fill="none" stroke="#000000" points="522.941,-444.5 609.829,-444.5 "/>
<text text-anchor="middle" x="566.385" y="-431.5" font-family="Helvetica,sans-Serif" font-size="10.00" fill="#000000">id (PK) </text>
<polyline fill="none" stroke="#000000" points="522.941,-424.5 609.829,-424.5 "/>
<text text-anchor="middle" x="566.385" y="-411.5" font-family="Helvetica,sans-Serif" font-size="10.00" fill="#000000">name (string)</text>
</g>
<!-- A2 -->
<g id="node3" class="node">
<title>A2</title>
<polygon fill="none" stroke="#000000" points="522.941,-313.5 522.941,-373.5 609.829,-373.5 609.829,-313.5 522.941,-313.5"/>
<text text-anchor="middle" x="566.385" y="-360.5" font-family="Helvetica,sans-Serif" font-size="10.00" fill="#000000">Course</text>
<polyline fill="none" stroke="#000000" points="522.941,-353.5 609.829,-353.5 "/>
<text text-anchor="middle" x="566.385" y="-340.5" font-family="Helvetica,sans-Serif" font-size="10.00" fill="#000000">id (PK) </text>
<polyline fill="none" stroke="#000000" points="522.941,-333.5 609.829,-333.5 "/>
<text text-anchor="middle" x="566.385" y="-320.5" font-family="Helvetica,sans-Serif" font-size="10.00" fill="#000000">name (string)</text>
</g>
<!-- A3 -->
<g id="node4" class="node">
<title>A3</title>
<polygon fill="none" stroke="#000000" points="0,-581.5 0,-765.5 119.684,-765.5 119.684,-581.5 0,-581.5"/>
<text text-anchor="middle" x="59.842" y="-752.5" font-family="Helvetica,sans-Serif" font-size="10.00" fill="#000000">Book</text>
<polyline fill="none" stroke="#000000" points="0,-745.5 119.684,-745.5 "/>
<text text-anchor="middle" x="59.842" y="-732.5" font-family="Helvetica,sans-Serif" font-size="10.00" fill="#000000">id (PK) </text>
<polyline fill="none" stroke="#000000" points="0,-725.5 119.684,-725.5 "/>
<text text-anchor="middle" x="59.842" y="-712.5" font-family="Helvetica,sans-Serif" font-size="10.00" fill="#000000">Recommendation_id</text>
<text text-anchor="middle" x="59.842" y="-700.5" font-family="Helvetica,sans-Serif" font-size="10.00" fill="#000000">(FK) </text>
<polyline fill="none" stroke="#000000" points="0,-693.5 119.684,-693.5 "/>
<text text-anchor="middle" x="59.842" y="-680.5" font-family="Helvetica,sans-Serif" font-size="10.00" fill="#000000">author (string) </text>
<polyline fill="none" stroke="#000000" points="0,-673.5 119.684,-673.5 "/>
<text text-anchor="middle" x="59.842" y="-660.5" font-family="Helvetica,sans-Serif" font-size="10.00" fill="#000000">title (string) </text>
<polyline fill="none" stroke="#000000" points="0,-653.5 119.684,-653.5 "/>
<text text-anchor="middle" x="59.842" y="-640.5" font-family="Helvetica,sans-Serif" font-size="10.00" fill="#000000">type (string) </text>
<polyline fill="none" stroke="#000000" points="0,-633.5 119.684,-633.5 "/>
<text text-anchor="middle" x="59.842" y="-620.5" font-family="Helvetica,sans-Serif" font-size="10.00" fill="#000000">ISBN (string) </text>
<polyline fill="none" stroke="#000000" points="0,-613.5 119.684,-613.5 "/>
<text text-anchor="middle" x="59.842" y="-600.5" font-family="Helvetica,sans-Serif" font-size="10.00" fill="#000000">description</text>
<text text-anchor="middle" x="59.842" y="-588.5" font-family="Helvetica,sans-Serif" font-size="10.00" fill="#000000">(string)</text>
</g>
<!-- A3&#45;&gt;A0 -->
<g id="edge1" class="edge">
<title>A3&#45;&gt;A0</title>
<path fill="none" stroke="#000000" d="M114.56,-581.3546C116.2927,-578.3709 118.0044,-575.4135 119.684,-572.5 150.7797,-518.5613 186.0738,-455.1198 206.2777,-418.5822"/>
<text text-anchor="middle" x="204.8937" y="-435.5343" font-family="Helvetica,sans-Serif" font-size="10.00" fill="#000000">1</text>
<text text-anchor="middle" x="116.3504" y="-558.4349" font-family="Helvetica,sans-Serif" font-size="10.00" fill="#000000">1</text>
</g>
<!-- A4 -->
<g id="node5" class="node">
<title>A4</title>
<polygon fill="none" stroke="#000000" points="0,-398.5 0,-562.5 119.684,-562.5 119.684,-398.5 0,-398.5"/>
<text text-anchor="middle" x="59.842" y="-549.5" font-family="Helvetica,sans-Serif" font-size="10.00" fill="#000000">Video</text>
<polyline fill="none" stroke="#000000" points="0,-542.5 119.684,-542.5 "/>
<text text-anchor="middle" x="59.842" y="-529.5" font-family="Helvetica,sans-Serif" font-size="10.00" fill="#000000">id (PK) </text>
<polyline fill="none" stroke="#000000" points="0,-522.5 119.684,-522.5 "/>
<text text-anchor="middle" x="59.842" y="-509.5" font-family="Helvetica,sans-Serif" font-size="10.00" fill="#000000">Recommendation_id</text>
<text text-anchor="middle" x="59.842" y="-497.5" font-family="Helvetica,sans-Serif" font-size="10.00" fill="#000000">(FK) </text>
<polyline fill="none" stroke="#000000" points="0,-490.5 119.684,-490.5 "/>
<text text-anchor="middle" x="59.842" y="-477.5" font-family="Helvetica,sans-Serif" font-size="10.00" fill="#000000">title (string) </text>
<polyline fill="none" stroke="#000000" points="0,-470.5 119.684,-470.5 "/>
<text text-anchor="middle" x="59.842" y="-457.5" font-family="Helvetica,sans-Serif" font-size="10.00" fill="#000000">url (string) </text>
<polyline fill="none" stroke="#000000" points="0,-450.5 119.684,-450.5 "/>
<text text-anchor="middle" x="59.842" y="-437.5" font-family="Helvetica,sans-Serif" font-size="10.00" fill="#000000">comment (string) </text>
<polyline fill="none" stroke="#000000" points="0,-430.5 119.684,-430.5 "/>
<text text-anchor="middle" x="59.842" y="-417.5" font-family="Helvetica,sans-Serif" font-size="10.00" fill="#000000">description</text>
<text text-anchor="middle" x="59.842" y="-405.5" font-family="Helvetica,sans-Serif" font-size="10.00" fill="#000000">(string)</text>
</g>
<!-- A4&#45;&gt;A0 -->
<g id="edge2" class="edge">
<title>A4&#45;&gt;A0</title>
<path fill="none" stroke="#000000" d="M120.0798,-446.504C136.3146,-437.3416 153.7599,-427.4961 169.585,-418.5651"/>
<text text-anchor="middle" x="157.9536" y="-431.8349" font-family="Helvetica,sans-Serif" font-size="10.00" fill="#000000">1</text>
<text text-anchor="middle" x="131.7112" y="-427.2341" font-family="Helvetica,sans-Serif" font-size="10.00" fill="#000000">1</text>
</g>
<!-- A5 -->
<g id="node6" class="node">
<title>A5</title>
<polygon fill="none" stroke="#000000" points="0,-215.5 0,-379.5 119.684,-379.5 119.684,-215.5 0,-215.5"/>
<text text-anchor="middle" x="59.842" y="-366.5" font-family="Helvetica,sans-Serif" font-size="10.00" fill="#000000">Blogpost</text>
<polyline fill="none" stroke="#000000" points="0,-359.5 119.684,-359.5 "/>
<text text-anchor="middle" x="59.842" y="-346.5" font-family="Helvetica,sans-Serif" font-size="10.00" fill="#000000">id (PK) </text>
<polyline fill="none" stroke="#000000" points="0,-339.5 119.684,-339.5 "/>
<text text-anchor="middle" x="59.842" y="-326.5" font-family="Helvetica,sans-Serif" font-size="10.00" fill="#000000">Recommendation_id</text>
<text text-anchor="middle" x="59.842" y="-314.5" font-family="Helvetica,sans-Serif" font-size="10.00" fill="#000000">(FK) </text>
<polyline fill="none" stroke="#000000" points="0,-307.5 119.684,-307.5 "/>
<text text-anchor="middle" x="59.842" y="-294.5" font-family="Helvetica,sans-Serif" font-size="10.00" fill="#000000">title (string) </text>
<polyline fill="none" stroke="#000000" points="0,-287.5 119.684,-287.5 "/>
<text text-anchor="middle" x="59.842" y="-274.5" font-family="Helvetica,sans-Serif" font-size="10.00" fill="#000000">writer (string) </text>
<polyline fill="none" stroke="#000000" points="0,-267.5 119.684,-267.5 "/>
<text text-anchor="middle" x="59.842" y="-254.5" font-family="Helvetica,sans-Serif" font-size="10.00" fill="#000000">url (string) </text>
<polyline fill="none" stroke="#000000" points="0,-247.5 119.684,-247.5 "/>
<text text-anchor="middle" x="59.842" y="-234.5" font-family="Helvetica,sans-Serif" font-size="10.00" fill="#000000">description</text>
<text text-anchor="middle" x="59.842" y="-222.5" font-family="Helvetica,sans-Serif" font-size="10.00" fill="#000000">(string)</text>
</g>
<!-- A5&#45;&gt;A0 -->
<g id="edge3" class="edge">
<title>A5&#45;&gt;A0</title>
<path fill="none" stroke="#000000" d="M120.0798,-331.1265C136.3146,-340.1892 153.7599,-349.9277 169.585,-358.7617"/>
<text text-anchor="middle" x="149.638" y="-354.3069" font-family="Helvetica,sans-Serif" font-size="10.00" fill="#000000">1</text>
<text text-anchor="middle" x="140.0268" y="-329.5813" font-family="Helvetica,sans-Serif" font-size="10.00" fill="#000000">1</text>
</g>
<!-- A6 -->
<g id="node7" class="node">
<title>A6</title>
<polygon fill="none" stroke="#000000" points="0,-.5 0,-196.5 119.684,-196.5 119.684,-.5 0,-.5"/>
<text text-anchor="middle" x="59.842" y="-183.5" font-family="Helvetica,sans-Serif" font-size="10.00" fill="#000000">Podcast</text>
<polyline fill="none" stroke="#000000" points="0,-176.5 119.684,-176.5 "/>
<text text-anchor="middle" x="59.842" y="-163.5" font-family="Helvetica,sans-Serif" font-size="10.00" fill="#000000">id (PK)</text>
<polyline fill="none" stroke="#000000" points="0,-156.5 119.684,-156.5 "/>
<text text-anchor="middle" x="59.842" y="-143.5" font-family="Helvetica,sans-Serif" font-size="10.00" fill="#000000">Recommendation_id</text>
<text text-anchor="middle" x="59.842" y="-131.5" font-family="Helvetica,sans-Serif" font-size="10.00" fill="#000000">(FK) </text>
<polyline fill="none" stroke="#000000" points="0,-124.5 119.684,-124.5 "/>
<text text-anchor="middle" x="59.842" y="-111.5" font-family="Helvetica,sans-Serif" font-size="10.00" fill="#000000">author (string)</text>
<polyline fill="none" stroke="#000000" points="0,-104.5 119.684,-104.5 "/>
<text text-anchor="middle" x="59.842" y="-91.5" font-family="Helvetica,sans-Serif" font-size="10.00" fill="#000000">title (string)</text>
<polyline fill="none" stroke="#000000" points="0,-84.5 119.684,-84.5 "/>
<text text-anchor="middle" x="59.842" y="-71.5" font-family="Helvetica,sans-Serif" font-size="10.00" fill="#000000">description</text>
<text text-anchor="middle" x="59.842" y="-59.5" font-family="Helvetica,sans-Serif" font-size="10.00" fill="#000000">(string)</text>
<polyline fill="none" stroke="#000000" points="0,-52.5 119.684,-52.5 "/>
<text text-anchor="middle" x="59.842" y="-39.5" font-family="Helvetica,sans-Serif" font-size="10.00" fill="#000000">url (string) </text>
<polyline fill="none" stroke="#000000" points="0,-32.5 119.684,-32.5 "/>
<text text-anchor="middle" x="59.842" y="-19.5" font-family="Helvetica,sans-Serif" font-size="10.00" fill="#000000">releaseDate</text>
<text text-anchor="middle" x="59.842" y="-7.5" font-family="Helvetica,sans-Serif" font-size="10.00" fill="#000000">(timestamp)</text>
</g>
<!-- A6&#45;&gt;A0 -->
<g id="edge4" class="edge">
<title>A6&#45;&gt;A0</title>
<path fill="none" stroke="#000000" d="M115.0316,-196.6808C146.806,-253.2064 184.5579,-320.366 205.9115,-358.3536"/>
<text text-anchor="middle" x="189.6614" y="-343.6945" font-family="Helvetica,sans-Serif" font-size="10.00" fill="#000000">1</text>
<text text-anchor="middle" x="131.2817" y="-205.3399" font-family="Helvetica,sans-Serif" font-size="10.00" fill="#000000">1</text>
</g>
<!-- A7 -->
<g id="node8" class="node">
<title>A7</title>
<polygon fill="none" stroke="#000000" points="7.509,-784.5 7.509,-864.5 112.175,-864.5 112.175,-784.5 7.509,-784.5"/>
<text text-anchor="middle" x="59.842" y="-851.5" font-family="Helvetica,sans-Serif" font-size="10.00" fill="#000000">User</text>
<polyline fill="none" stroke="#000000" points="7.509,-844.5 112.175,-844.5 "/>
<text text-anchor="middle" x="59.842" y="-831.5" font-family="Helvetica,sans-Serif" font-size="10.00" fill="#000000">id (PK) </text>
<polyline fill="none" stroke="#000000" points="7.509,-824.5 112.175,-824.5 "/>
<text text-anchor="middle" x="59.842" y="-811.5" font-family="Helvetica,sans-Serif" font-size="10.00" fill="#000000">email (string) </text>
<polyline fill="none" stroke="#000000" points="7.509,-804.5 112.175,-804.5 "/>
<text text-anchor="middle" x="59.842" y="-791.5" font-family="Helvetica,sans-Serif" font-size="10.00" fill="#000000">password (string)</text>
</g>
<!-- A8&#45;&gt;A1 -->
<g id="edge6" class="edge">
<title>A8&#45;&gt;A1</title>
<path fill="none" stroke="#000000" d="M465.4489,-434.5C484.7654,-434.5 505.3907,-434.5 522.9291,-434.5"/>
<text text-anchor="middle" x="504.803" y="-439.9524" font-family="Helvetica,sans-Serif" font-size="10.00" fill="#000000">1</text>
<text text-anchor="middle" x="483.5751" y="-423.0476" font-family="Helvetica,sans-Serif" font-size="10.00" fill="#000000">*</text>
</g>
<!-- A9&#45;&gt;A2 -->
<g id="edge8" class="edge">
<title>A9&#45;&gt;A2</title>
<path fill="none" stroke="#000000" d="M473.1762,-343.5C490.117,-343.5 507.6019,-343.5 522.7863,-343.5"/>
<text text-anchor="middle" x="504.6601" y="-348.9524" font-family="Helvetica,sans-Serif" font-size="10.00" fill="#000000">1</text>
<text text-anchor="middle" x="491.3023" y="-332.0476" font-family="Helvetica,sans-Serif" font-size="10.00" fill="#000000">*</text>
</g>
</g>
</svg>
