<?xml version="1.0" encoding="UTF-8" standalone="no"?>
<!DOCTYPE svg PUBLIC "-//W3C//DTD SVG 1.1//EN"
 "http://www.w3.org/Graphics/SVG/1.1/DTD/svg11.dtd">
<!-- Generated by graphviz version 2.40.1 (20161225.0304)
 -->
<!-- Title: G Pages: 1 -->
<svg width="554pt" height="651pt"
 viewBox="0.00 0.00 554.44 651.00" xmlns="http://www.w3.org/2000/svg" xmlns:xlink="http://www.w3.org/1999/xlink">
<g id="graph0" class="graph" transform="scale(1 1) rotate(0) translate(4 647)">
<title>G</title>
<polygon fill="#ffffff" stroke="transparent" points="-4,4 -4,-647 550.436,-647 550.436,4 -4,4"/>
<!-- A0 -->
<g id="node1" class="node">
<title>A0</title>
<polygon fill="none" stroke="#000000" points="6.1085,-.5 6.1085,-132.5 101.8855,-132.5 101.8855,-.5 6.1085,-.5"/>
<text text-anchor="middle" x="53.997" y="-119.5" font-family="Helvetica,sans-Serif" font-size="10.00" fill="#000000">Kirja</text>
<polyline fill="none" stroke="#000000" points="6.1085,-112.5 101.8855,-112.5 "/>
<text text-anchor="middle" x="53.997" y="-99.5" font-family="Helvetica,sans-Serif" font-size="10.00" fill="#000000">id (PK) </text>
<polyline fill="none" stroke="#000000" points="6.1085,-92.5 101.8855,-92.5 "/>
<text text-anchor="middle" x="53.997" y="-79.5" font-family="Helvetica,sans-Serif" font-size="10.00" fill="#000000">kirjoittaja</text>
<text text-anchor="middle" x="53.997" y="-67.5" font-family="Helvetica,sans-Serif" font-size="10.00" fill="#000000">(string) </text>
<polyline fill="none" stroke="#000000" points="6.1085,-60.5 101.8855,-60.5 "/>
<text text-anchor="middle" x="53.997" y="-47.5" font-family="Helvetica,sans-Serif" font-size="10.00" fill="#000000">otsikko (string) </text>
<polyline fill="none" stroke="#000000" points="6.1085,-40.5 101.8855,-40.5 "/>
<text text-anchor="middle" x="53.997" y="-27.5" font-family="Helvetica,sans-Serif" font-size="10.00" fill="#000000">tyyppi (string) </text>
<polyline fill="none" stroke="#000000" points="6.1085,-20.5 101.8855,-20.5 "/>
<text text-anchor="middle" x="53.997" y="-7.5" font-family="Helvetica,sans-Serif" font-size="10.00" fill="#000000">ISBN (string)</text>
</g>
<!-- A1 -->
<g id="node2" class="node">
<title>A1</title>
<polygon fill="none" stroke="#000000" points="177.1775,-90.5 177.1775,-150.5 257.3855,-150.5 257.3855,-90.5 177.1775,-90.5"/>
<text text-anchor="middle" x="217.2815" y="-137.5" font-family="Helvetica,sans-Serif" font-size="10.00" fill="#000000">Kirja_Tagi</text>
<polyline fill="none" stroke="#000000" points="177.1775,-130.5 257.3855,-130.5 "/>
<text text-anchor="middle" x="217.2815" y="-117.5" font-family="Helvetica,sans-Serif" font-size="10.00" fill="#000000">id (PK)</text>
<polyline fill="none" stroke="#000000" points="177.1775,-110.5 257.3855,-110.5 "/>
<text text-anchor="middle" x="217.2815" y="-97.5" font-family="Helvetica,sans-Serif" font-size="10.00" fill="#000000">nimi (string)</text>
</g>
<!-- A0&#45;&gt;A1 -->
<g id="edge1" class="edge">
<title>A0&#45;&gt;A1</title>
<path fill="none" stroke="#000000" d="M102.1046,-82.4097C125.9048,-90.2807 154.307,-99.6736 176.9518,-107.1625"/>
<text text-anchor="middle" x="157.0884" y="-106.4961" font-family="Helvetica,sans-Serif" font-size="10.00" fill="#000000">*</text>
<text text-anchor="middle" x="121.968" y="-77.0762" font-family="Helvetica,sans-Serif" font-size="10.00" fill="#000000">1</text>
</g>
<!-- A3 -->
<g id="node4" class="node">
<title>A3</title>
<polygon fill="none" stroke="#000000" points="456.777,-161.5 456.777,-221.5 546.436,-221.5 546.436,-161.5 456.777,-161.5"/>
<text text-anchor="middle" x="501.6065" y="-208.5" font-family="Helvetica,sans-Serif" font-size="10.00" fill="#000000">Kirja_Kurssi</text>
<polyline fill="none" stroke="#000000" points="456.777,-201.5 546.436,-201.5 "/>
<text text-anchor="middle" x="501.6065" y="-188.5" font-family="Helvetica,sans-Serif" font-size="10.00" fill="#000000">kirja_id (FK) </text>
<polyline fill="none" stroke="#000000" points="456.777,-181.5 546.436,-181.5 "/>
<text text-anchor="middle" x="501.6065" y="-168.5" font-family="Helvetica,sans-Serif" font-size="10.00" fill="#000000">kurssi_id (FK)</text>
</g>
<!-- A0&#45;&gt;A3 -->
<g id="edge2" class="edge">
<title>A0&#45;&gt;A3</title>
<path fill="none" stroke="#000000" d="M102.1957,-64.1272C147.8771,-63.1351 218.0211,-64.892 276.569,-80.5 342.8657,-98.1737 412.7661,-136.1154 456.7417,-162.6963"/>
<text text-anchor="middle" x="436.8413" y="-157.7036" font-family="Helvetica,sans-Serif" font-size="10.00" fill="#000000">*</text>
<text text-anchor="middle" x="120.2002" y="-52.4189" font-family="Helvetica,sans-Serif" font-size="10.00" fill="#000000">1</text>
</g>
<!-- A2 -->
<g id="node3" class="node">
<title>A2</title>
<polygon fill="none" stroke="#000000" points="326.569,-190.5 326.569,-250.5 406.777,-250.5 406.777,-190.5 326.569,-190.5"/>
<text text-anchor="middle" x="366.673" y="-237.5" font-family="Helvetica,sans-Serif" font-size="10.00" fill="#000000">Tagi</text>
<polyline fill="none" stroke="#000000" points="326.569,-230.5 406.777,-230.5 "/>
<text text-anchor="middle" x="366.673" y="-217.5" font-family="Helvetica,sans-Serif" font-size="10.00" fill="#000000">id (PK) </text>
<polyline fill="none" stroke="#000000" points="326.569,-210.5 406.777,-210.5 "/>
<text text-anchor="middle" x="366.673" y="-197.5" font-family="Helvetica,sans-Serif" font-size="10.00" fill="#000000">nimi (string)</text>
</g>
<!-- A1&#45;&gt;A2 -->
<g id="edge12" class="edge">
<title>A1&#45;&gt;A2</title>
<path fill="none" stroke="#000000" d="M257.5126,-146.8612C263.8971,-151.0743 270.4203,-155.3966 276.569,-159.5 292.9105,-170.4057 310.8452,-182.5179 326.3817,-193.0564"/>
<text text-anchor="middle" x="306.6354" y="-186.881" font-family="Helvetica,sans-Serif" font-size="10.00" fill="#000000">1</text>
<text text-anchor="middle" x="277.2964" y="-146.794" font-family="Helvetica,sans-Serif" font-size="10.00" fill="#000000">*</text>
</g>
<!-- A4 -->
<g id="node5" class="node">
<title>A4</title>
<polygon fill="none" stroke="#000000" points="326.569,-324.5 326.569,-384.5 406.777,-384.5 406.777,-324.5 326.569,-324.5"/>
<text text-anchor="middle" x="366.673" y="-371.5" font-family="Helvetica,sans-Serif" font-size="10.00" fill="#000000">Kurssi</text>
<polyline fill="none" stroke="#000000" points="326.569,-364.5 406.777,-364.5 "/>
<text text-anchor="middle" x="366.673" y="-351.5" font-family="Helvetica,sans-Serif" font-size="10.00" fill="#000000">id (PK) </text>
<polyline fill="none" stroke="#000000" points="326.569,-344.5 406.777,-344.5 "/>
<text text-anchor="middle" x="366.673" y="-331.5" font-family="Helvetica,sans-Serif" font-size="10.00" fill="#000000">nimi (string)</text>
</g>
<!-- A4&#45;&gt;A3 -->
<g id="edge3" class="edge">
<title>A4&#45;&gt;A3</title>
<path fill="none" stroke="#000000" d="M391.7367,-324.223C415.9729,-294.9456 452.4863,-250.8373 476.677,-221.6149"/>
<text text-anchor="middle" x="471.6294" y="-237.9675" font-family="Helvetica,sans-Serif" font-size="10.00" fill="#000000">*</text>
<text text-anchor="middle" x="396.7843" y="-301.8704" font-family="Helvetica,sans-Serif" font-size="10.00" fill="#000000">1</text>
</g>
<!-- A5 -->
<g id="node6" class="node">
<title>A5</title>
<polygon fill="none" stroke="#000000" points="0,-306.5 0,-406.5 107.994,-406.5 107.994,-306.5 0,-306.5"/>
<text text-anchor="middle" x="53.997" y="-393.5" font-family="Helvetica,sans-Serif" font-size="10.00" fill="#000000">Video</text>
<polyline fill="none" stroke="#000000" points="0,-386.5 107.994,-386.5 "/>
<text text-anchor="middle" x="53.997" y="-373.5" font-family="Helvetica,sans-Serif" font-size="10.00" fill="#000000">id (PK) </text>
<polyline fill="none" stroke="#000000" points="0,-366.5 107.994,-366.5 "/>
<text text-anchor="middle" x="53.997" y="-353.5" font-family="Helvetica,sans-Serif" font-size="10.00" fill="#000000">otsikko (string) </text>
<polyline fill="none" stroke="#000000" points="0,-346.5 107.994,-346.5 "/>
<text text-anchor="middle" x="53.997" y="-333.5" font-family="Helvetica,sans-Serif" font-size="10.00" fill="#000000">url (string) </text>
<polyline fill="none" stroke="#000000" points="0,-326.5 107.994,-326.5 "/>
<text text-anchor="middle" x="53.997" y="-313.5" font-family="Helvetica,sans-Serif" font-size="10.00" fill="#000000">kommentti (string)</text>
</g>
<!-- A6 -->
<g id="node7" class="node">
<title>A6</title>
<polygon fill="none" stroke="#000000" points="172.452,-358.5 172.452,-418.5 262.111,-418.5 262.111,-358.5 172.452,-358.5"/>
<text text-anchor="middle" x="217.2815" y="-405.5" font-family="Helvetica,sans-Serif" font-size="10.00" fill="#000000">Video_Kurssi</text>
<polyline fill="none" stroke="#000000" points="172.452,-398.5 262.111,-398.5 "/>
<text text-anchor="middle" x="217.2815" y="-385.5" font-family="Helvetica,sans-Serif" font-size="10.00" fill="#000000">video_id (FK)</text>
<polyline fill="none" stroke="#000000" points="172.452,-378.5 262.111,-378.5 "/>
<text text-anchor="middle" x="217.2815" y="-365.5" font-family="Helvetica,sans-Serif" font-size="10.00" fill="#000000">kurssi_id (FK)</text>
</g>
<!-- A5&#45;&gt;A6 -->
<g id="edge4" class="edge">
<title>A5&#45;&gt;A6</title>
<path fill="none" stroke="#000000" d="M108.3684,-367.1555C129.1494,-371.2281 152.5937,-375.8227 172.3933,-379.7029"/>
<text text-anchor="middle" x="152.9799" y="-381.5115" font-family="Helvetica,sans-Serif" font-size="10.00" fill="#000000">*</text>
<text text-anchor="middle" x="127.7817" y="-359.347" font-family="Helvetica,sans-Serif" font-size="10.00" fill="#000000">1</text>
</g>
<!-- A13 -->
<g id="node14" class="node">
<title>A13</title>
<polygon fill="none" stroke="#000000" points="177.9965,-248.5 177.9965,-284.5 256.5665,-284.5 256.5665,-248.5 177.9965,-248.5"/>
<text text-anchor="middle" x="217.2815" y="-263.5" font-family="Helvetica,sans-Serif" font-size="10.00" fill="#000000">Video_Tagi</text>
</g>
<!-- A5&#45;&gt;A13 -->
<g id="edge13" class="edge">
<title>A5&#45;&gt;A13</title>
<path fill="none" stroke="#000000" d="M108.0859,-322.089C123.949,-312.4483 141.4753,-302.2263 157.994,-293.5 164.2943,-290.1718 171.0842,-286.8465 177.7413,-283.7243"/>
<text text-anchor="middle" x="164.9467" y="-296.0963" font-family="Helvetica,sans-Serif" font-size="10.00" fill="#000000">*</text>
<text text-anchor="middle" x="119.2197" y="-302.4746" font-family="Helvetica,sans-Serif" font-size="10.00" fill="#000000">1</text>
</g>
<!-- A6&#45;&gt;A4 -->
<g id="edge5" class="edge">
<title>A6&#45;&gt;A4</title>
<path fill="none" stroke="#000000" d="M262.5093,-378.2066C282.7766,-373.594 306.491,-368.1968 326.1686,-363.7184"/>
<text text-anchor="middle" x="310.3701" y="-372.9825" font-family="Helvetica,sans-Serif" font-size="10.00" fill="#000000">1</text>
<text text-anchor="middle" x="278.3078" y="-362.9425" font-family="Helvetica,sans-Serif" font-size="10.00" fill="#000000">*</text>
</g>
<!-- A7 -->
<g id="node8" class="node">
<title>A7</title>
<polygon fill="none" stroke="#000000" points="6.1085,-431.5 6.1085,-543.5 101.8855,-543.5 101.8855,-431.5 6.1085,-431.5"/>
<text text-anchor="middle" x="53.997" y="-530.5" font-family="Helvetica,sans-Serif" font-size="10.00" fill="#000000">Blogipostaus</text>
<polyline fill="none" stroke="#000000" points="6.1085,-523.5 101.8855,-523.5 "/>
<text text-anchor="middle" x="53.997" y="-510.5" font-family="Helvetica,sans-Serif" font-size="10.00" fill="#000000">id (PK) </text>
<polyline fill="none" stroke="#000000" points="6.1085,-503.5 101.8855,-503.5 "/>
<text text-anchor="middle" x="53.997" y="-490.5" font-family="Helvetica,sans-Serif" font-size="10.00" fill="#000000">otsikko (string) </text>
<polyline fill="none" stroke="#000000" points="6.1085,-483.5 101.8855,-483.5 "/>
<text text-anchor="middle" x="53.997" y="-470.5" font-family="Helvetica,sans-Serif" font-size="10.00" fill="#000000">kirjoittaja</text>
<text text-anchor="middle" x="53.997" y="-458.5" font-family="Helvetica,sans-Serif" font-size="10.00" fill="#000000">(string) </text>
<polyline fill="none" stroke="#000000" points="6.1085,-451.5 101.8855,-451.5 "/>
<text text-anchor="middle" x="53.997" y="-438.5" font-family="Helvetica,sans-Serif" font-size="10.00" fill="#000000">url (string)</text>
</g>
<!-- A8 -->
<g id="node9" class="node">
<title>A8</title>
<polygon fill="none" stroke="#000000" points="157.994,-492.5 157.994,-564.5 276.569,-564.5 276.569,-492.5 157.994,-492.5"/>
<text text-anchor="middle" x="217.2815" y="-551.5" font-family="Helvetica,sans-Serif" font-size="10.00" fill="#000000">Blogipostaus_Kurssi</text>
<polyline fill="none" stroke="#000000" points="157.994,-544.5 276.569,-544.5 "/>
<text text-anchor="middle" x="217.2815" y="-531.5" font-family="Helvetica,sans-Serif" font-size="10.00" fill="#000000">blogipostaus_id</text>
<text text-anchor="middle" x="217.2815" y="-519.5" font-family="Helvetica,sans-Serif" font-size="10.00" fill="#000000">(FK)</text>
<polyline fill="none" stroke="#000000" points="157.994,-512.5 276.569,-512.5 "/>
<text text-anchor="middle" x="217.2815" y="-499.5" font-family="Helvetica,sans-Serif" font-size="10.00" fill="#000000">kurssi_id (FK)</text>
</g>
<!-- A7&#45;&gt;A8 -->
<g id="edge6" class="edge">
<title>A7&#45;&gt;A8</title>
<path fill="none" stroke="#000000" d="M102.1046,-499.5796C119.602,-503.9731 139.5867,-508.9912 157.9424,-513.6002"/>
<text text-anchor="middle" x="138.3035" y="-514.3837" font-family="Helvetica,sans-Serif" font-size="10.00" fill="#000000">*</text>
<text text-anchor="middle" x="121.7435" y="-492.7961" font-family="Helvetica,sans-Serif" font-size="10.00" fill="#000000">1</text>
</g>
<!-- A14 -->
<g id="node15" class="node">
<title>A14</title>
<polygon fill="none" stroke="#000000" points="162.159,-437.5 162.159,-473.5 272.404,-473.5 272.404,-437.5 162.159,-437.5"/>
<text text-anchor="middle" x="217.2815" y="-452.5" font-family="Helvetica,sans-Serif" font-size="10.00" fill="#000000">Blogipostaus_Tagi</text>
</g>
<!-- A7&#45;&gt;A14 -->
<g id="edge15" class="edge">
<title>A7&#45;&gt;A14</title>
<path fill="none" stroke="#000000" d="M102.1046,-478.072C120.919,-474.3848 142.6093,-470.134 162.0577,-466.3226"/>
<text text-anchor="middle" x="145.8955" y="-475.1032" font-family="Helvetica,sans-Serif" font-size="10.00" fill="#000000">*</text>
<text text-anchor="middle" x="118.2668" y="-463.2914" font-family="Helvetica,sans-Serif" font-size="10.00" fill="#000000">1</text>
</g>
<!-- A8&#45;&gt;A4 -->
<g id="edge7" class="edge">
<title>A8&#45;&gt;A4</title>
<path fill="none" stroke="#000000" d="M266.2066,-492.4896C269.8307,-489.2406 273.3307,-485.8925 276.569,-482.5 305.56,-452.1287 332.3766,-411.7949 349.084,-384.5859"/>
<text text-anchor="middle" x="346.688" y="-401.4418" font-family="Helvetica,sans-Serif" font-size="10.00" fill="#000000">1</text>
<text text-anchor="middle" x="274.001" y="-471.0709" font-family="Helvetica,sans-Serif" font-size="10.00" fill="#000000">*</text>
</g>
<!-- A9 -->
<g id="node10" class="node">
<title>A9</title>
<polygon fill="none" stroke="#000000" points="7.2175,-152.5 7.2175,-252.5 100.7765,-252.5 100.7765,-152.5 7.2175,-152.5"/>
<text text-anchor="middle" x="53.997" y="-239.5" font-family="Helvetica,sans-Serif" font-size="10.00" fill="#000000">Podcast</text>
<polyline fill="none" stroke="#000000" points="7.2175,-232.5 100.7765,-232.5 "/>
<text text-anchor="middle" x="53.997" y="-219.5" font-family="Helvetica,sans-Serif" font-size="10.00" fill="#000000">id (PK)</text>
<polyline fill="none" stroke="#000000" points="7.2175,-212.5 100.7765,-212.5 "/>
<text text-anchor="middle" x="53.997" y="-199.5" font-family="Helvetica,sans-Serif" font-size="10.00" fill="#000000">author (string)</text>
<polyline fill="none" stroke="#000000" points="7.2175,-192.5 100.7765,-192.5 "/>
<text text-anchor="middle" x="53.997" y="-179.5" font-family="Helvetica,sans-Serif" font-size="10.00" fill="#000000">otsikko (string)</text>
<polyline fill="none" stroke="#000000" points="7.2175,-172.5 100.7765,-172.5 "/>
<text text-anchor="middle" x="53.997" y="-159.5" font-family="Helvetica,sans-Serif" font-size="10.00" fill="#000000">kuvaus (string)</text>
</g>
<!-- A10 -->
<g id="node11" class="node">
<title>A10</title>
<polygon fill="none" stroke="#000000" points="168.5515,-303.5 168.5515,-339.5 266.0115,-339.5 266.0115,-303.5 168.5515,-303.5"/>
<text text-anchor="middle" x="217.2815" y="-318.5" font-family="Helvetica,sans-Serif" font-size="10.00" fill="#000000">Podcast_Kurssi</text>
</g>
<!-- A9&#45;&gt;A10 -->
<g id="edge8" class="edge">
<title>A9&#45;&gt;A10</title>
<path fill="none" stroke="#000000" d="M100.9481,-248.5107C118.0734,-263.9247 138.1273,-280.483 157.994,-293.5 163.4212,-297.056 169.3708,-300.4165 175.3411,-303.4924"/>
<text text-anchor="middle" x="155.3599" y="-299.6252" font-family="Helvetica,sans-Serif" font-size="10.00" fill="#000000">*</text>
<text text-anchor="middle" x="120.104" y="-251.2598" font-family="Helvetica,sans-Serif" font-size="10.00" fill="#000000">1</text>
</g>
<!-- A11 -->
<g id="node12" class="node">
<title>A11</title>
<polygon fill="none" stroke="#000000" points="172.7165,-169.5 172.7165,-229.5 261.8465,-229.5 261.8465,-169.5 172.7165,-169.5"/>
<text text-anchor="middle" x="217.2815" y="-216.5" font-family="Helvetica,sans-Serif" font-size="10.00" fill="#000000">Podcast_Tagi</text>
<polyline fill="none" stroke="#000000" points="172.7165,-209.5 261.8465,-209.5 "/>
<text text-anchor="middle" x="217.2815" y="-196.5" font-family="Helvetica,sans-Serif" font-size="10.00" fill="#000000">id (PK)</text>
<polyline fill="none" stroke="#000000" points="172.7165,-189.5 261.8465,-189.5 "/>
<text text-anchor="middle" x="217.2815" y="-176.5" font-family="Helvetica,sans-Serif" font-size="10.00" fill="#000000">nimi (string)</text>
</g>
<!-- A9&#45;&gt;A11 -->
<g id="edge10" class="edge">
<title>A9&#45;&gt;A11</title>
<path fill="none" stroke="#000000" d="M100.7878,-201.6403C123.3109,-201.2265 150.1904,-200.7327 172.4515,-200.3237"/>
<text text-anchor="middle" x="154.4837" y="-206.1076" font-family="Helvetica,sans-Serif" font-size="10.00" fill="#000000">*</text>
<text text-anchor="middle" x="118.7556" y="-189.8564" font-family="Helvetica,sans-Serif" font-size="10.00" fill="#000000">1</text>
</g>
<!-- A10&#45;&gt;A4 -->
<g id="edge9" class="edge">
<title>A10&#45;&gt;A4</title>
<path fill="none" stroke="#000000" d="M266.1979,-332.3054C285.5996,-336.5912 307.6462,-341.4612 326.1347,-345.5452"/>
<text text-anchor="middle" x="306.6121" y="-346.8889" font-family="Helvetica,sans-Serif" font-size="10.00" fill="#000000">1</text>
<text text-anchor="middle" x="285.7205" y="-324.9618" font-family="Helvetica,sans-Serif" font-size="10.00" fill="#000000">*</text>
</g>
<!-- A11&#45;&gt;A2 -->
<g id="edge11" class="edge">
<title>A11&#45;&gt;A2</title>
<path fill="none" stroke="#000000" d="M262.1039,-205.8007C282.559,-208.6761 306.5925,-212.0545 326.4577,-214.8469"/>
<text text-anchor="middle" x="307.3314" y="-217.6938" font-family="Helvetica,sans-Serif" font-size="10.00" fill="#000000">1</text>
<text text-anchor="middle" x="281.2301" y="-196.9538" font-family="Helvetica,sans-Serif" font-size="10.00" fill="#000000">*</text>
</g>
<!-- A12 -->
<g id="node13" class="node">
<title>A12</title>
<polygon fill="none" stroke="#000000" points="1.664,-562.5 1.664,-642.5 106.33,-642.5 106.33,-562.5 1.664,-562.5"/>
<text text-anchor="middle" x="53.997" y="-629.5" font-family="Helvetica,sans-Serif" font-size="10.00" fill="#000000">Kayttaja</text>
<polyline fill="none" stroke="#000000" points="1.664,-622.5 106.33,-622.5 "/>
<text text-anchor="middle" x="53.997" y="-609.5" font-family="Helvetica,sans-Serif" font-size="10.00" fill="#000000">id (PK) </text>
<polyline fill="none" stroke="#000000" points="1.664,-602.5 106.33,-602.5 "/>
<text text-anchor="middle" x="53.997" y="-589.5" font-family="Helvetica,sans-Serif" font-size="10.00" fill="#000000">email (string) </text>
<polyline fill="none" stroke="#000000" points="1.664,-582.5 106.33,-582.5 "/>
<text text-anchor="middle" x="53.997" y="-569.5" font-family="Helvetica,sans-Serif" font-size="10.00" fill="#000000">password (string)</text>
</g>
<!-- A13&#45;&gt;A2 -->
<g id="edge14" class="edge">
<title>A13&#45;&gt;A2</title>
<path fill="none" stroke="#000000" d="M256.9235,-254.2936C278.3609,-247.6927 304.7802,-239.5578 326.3255,-232.9236"/>
<text text-anchor="middle" x="311.4893" y="-243.3359" font-family="Helvetica,sans-Serif" font-size="10.00" fill="#000000">1</text>
<text text-anchor="middle" x="271.7596" y="-237.8813" font-family="Helvetica,sans-Serif" font-size="10.00" fill="#000000">*</text>
</g>
<!-- A14&#45;&gt;A2 -->
<g id="edge16" class="edge">
<title>A14&#45;&gt;A2</title>
<path fill="none" stroke="#000000" d="M264.1551,-437.4756C268.6741,-434.571 272.9236,-431.2589 276.569,-427.5 278.2232,-425.7942 329.1152,-307.7979 353.6689,-250.7434"/>
<text text-anchor="middle" x="354.2639" y="-267.7346" font-family="Helvetica,sans-Serif" font-size="10.00" fill="#000000">1</text>
<text text-anchor="middle" x="274.6766" y="-417.4668" font-family="Helvetica,sans-Serif" font-size="10.00" fill="#000000">*</text>
</g>
</g>
</svg>
