<?xml version="1.0" encoding="UTF-8" standalone="no"?>
<!DOCTYPE svg PUBLIC "-//W3C//DTD SVG 1.1//EN"
 "http://www.w3.org/Graphics/SVG/1.1/DTD/svg11.dtd">
<!-- Generated by graphviz version 2.40.1 (20161225.0304)
 -->
<!-- Title: G Pages: 1 -->
<svg width="618pt" height="797pt"
 viewBox="0.00 0.00 617.83 797.00" xmlns="http://www.w3.org/2000/svg" xmlns:xlink="http://www.w3.org/1999/xlink">
<g id="graph0" class="graph" transform="scale(1 1) rotate(0) translate(4 793)">
<title>G</title>
<polygon fill="#ffffff" stroke="transparent" points="-4,4 -4,-793 613.829,-793 613.829,4 -4,4"/>
<!-- A0 -->
<g id="node1" class="node">
<title>A0</title>
<polygon fill="none" stroke="#000000" points="169.684,-324.5 169.684,-364.5 276.031,-364.5 276.031,-324.5 169.684,-324.5"/>
<text text-anchor="middle" x="222.8575" y="-351.5" font-family="Helvetica,sans-Serif" font-size="10.00" fill="#000000">Recommendation</text>
<polyline fill="none" stroke="#000000" points="169.684,-344.5 276.031,-344.5 "/>
<text text-anchor="middle" x="222.8575" y="-331.5" font-family="Helvetica,sans-Serif" font-size="10.00" fill="#000000">id (PK)</text>
</g>
<!-- A8 -->
<g id="node9" class="node">
<title>A8</title>
<polygon fill="none" stroke="#000000" points="333.53,-354.5 333.53,-426.5 465.442,-426.5 465.442,-354.5 333.53,-354.5"/>
<text text-anchor="middle" x="399.486" y="-413.5" font-family="Helvetica,sans-Serif" font-size="10.00" fill="#000000">Recommendation_Tag </text>
<polyline fill="none" stroke="#000000" points="333.53,-406.5 465.442,-406.5 "/>
<text text-anchor="middle" x="399.486" y="-393.5" font-family="Helvetica,sans-Serif" font-size="10.00" fill="#000000">recommendation_id</text>
<text text-anchor="middle" x="399.486" y="-381.5" font-family="Helvetica,sans-Serif" font-size="10.00" fill="#000000">(FK)</text>
<polyline fill="none" stroke="#000000" points="333.53,-374.5 465.442,-374.5 "/>
<text text-anchor="middle" x="399.486" y="-361.5" font-family="Helvetica,sans-Serif" font-size="10.00" fill="#000000">tag_id (FK)</text>
</g>
<!-- A0&#45;&gt;A8 -->
<g id="edge5" class="edge">
<title>A0&#45;&gt;A8</title>
<path fill="none" stroke="#000000" d="M276.3312,-358.4263C294.303,-363.1068 314.5673,-368.3843 333.3913,-373.2867"/>
<text text-anchor="middle" x="313.72" y="-373.898" font-family="Helvetica,sans-Serif" font-size="10.00" fill="#000000">*</text>
<text text-anchor="middle" x="296.0025" y="-351.8151" font-family="Helvetica,sans-Serif" font-size="10.00" fill="#000000">1</text>
</g>
<!-- A9 -->
<g id="node10" class="node">
<title>A9</title>
<polygon fill="none" stroke="#000000" points="326.031,-263.5 326.031,-335.5 472.941,-335.5 472.941,-263.5 326.031,-263.5"/>
<text text-anchor="middle" x="399.486" y="-322.5" font-family="Helvetica,sans-Serif" font-size="10.00" fill="#000000">Recommendation_Course </text>
<polyline fill="none" stroke="#000000" points="326.031,-315.5 472.941,-315.5 "/>
<text text-anchor="middle" x="399.486" y="-302.5" font-family="Helvetica,sans-Serif" font-size="10.00" fill="#000000">recommendation_id</text>
<text text-anchor="middle" x="399.486" y="-290.5" font-family="Helvetica,sans-Serif" font-size="10.00" fill="#000000">(FK)</text>
<polyline fill="none" stroke="#000000" points="326.031,-283.5 472.941,-283.5 "/>
<text text-anchor="middle" x="399.486" y="-270.5" font-family="Helvetica,sans-Serif" font-size="10.00" fill="#000000">course_id (FK)</text>
</g>
<!-- A0&#45;&gt;A9 -->
<g id="edge7" class="edge">
<title>A0&#45;&gt;A9</title>
<path fill="none" stroke="#000000" d="M276.3312,-330.8764C291.9677,-326.8927 309.3396,-322.4668 325.9884,-318.2251"/>
<text text-anchor="middle" x="310.5101" y="-327.8909" font-family="Helvetica,sans-Serif" font-size="10.00" fill="#000000">*</text>
<text text-anchor="middle" x="291.8095" y="-315.2106" font-family="Helvetica,sans-Serif" font-size="10.00" fill="#000000">1</text>
</g>
<!-- A1 -->
<g id="node2" class="node">
<title>A1</title>
<polygon fill="none" stroke="#000000" points="522.941,-360.5 522.941,-420.5 609.829,-420.5 609.829,-360.5 522.941,-360.5"/>
<text text-anchor="middle" x="566.385" y="-407.5" font-family="Helvetica,sans-Serif" font-size="10.00" fill="#000000">Tag</text>
<polyline fill="none" stroke="#000000" points="522.941,-400.5 609.829,-400.5 "/>
<text text-anchor="middle" x="566.385" y="-387.5" font-family="Helvetica,sans-Serif" font-size="10.00" fill="#000000">id (PK) </text>
<polyline fill="none" stroke="#000000" points="522.941,-380.5 609.829,-380.5 "/>
<text text-anchor="middle" x="566.385" y="-367.5" font-family="Helvetica,sans-Serif" font-size="10.00" fill="#000000">name (string)</text>
</g>
<!-- A2 -->
<g id="node3" class="node">
<title>A2</title>
<polygon fill="none" stroke="#000000" points="522.941,-269.5 522.941,-329.5 609.829,-329.5 609.829,-269.5 522.941,-269.5"/>
<text text-anchor="middle" x="566.385" y="-316.5" font-family="Helvetica,sans-Serif" font-size="10.00" fill="#000000">Course</text>
<polyline fill="none" stroke="#000000" points="522.941,-309.5 609.829,-309.5 "/>
<text text-anchor="middle" x="566.385" y="-296.5" font-family="Helvetica,sans-Serif" font-size="10.00" fill="#000000">id (PK) </text>
<polyline fill="none" stroke="#000000" points="522.941,-289.5 609.829,-289.5 "/>
<text text-anchor="middle" x="566.385" y="-276.5" font-family="Helvetica,sans-Serif" font-size="10.00" fill="#000000">name (string)</text>
</g>
<!-- A3 -->
<g id="node4" class="node">
<title>A3</title>
<polygon fill="none" stroke="#000000" points="0,-505.5 0,-689.5 119.684,-689.5 119.684,-505.5 0,-505.5"/>
<text text-anchor="middle" x="59.842" y="-676.5" font-family="Helvetica,sans-Serif" font-size="10.00" fill="#000000">Book</text>
<polyline fill="none" stroke="#000000" points="0,-669.5 119.684,-669.5 "/>
<text text-anchor="middle" x="59.842" y="-656.5" font-family="Helvetica,sans-Serif" font-size="10.00" fill="#000000">id (PK) </text>
<polyline fill="none" stroke="#000000" points="0,-649.5 119.684,-649.5 "/>
<text text-anchor="middle" x="59.842" y="-636.5" font-family="Helvetica,sans-Serif" font-size="10.00" fill="#000000">Recommendation_id</text>
<text text-anchor="middle" x="59.842" y="-624.5" font-family="Helvetica,sans-Serif" font-size="10.00" fill="#000000">(FK) </text>
<polyline fill="none" stroke="#000000" points="0,-617.5 119.684,-617.5 "/>
<text text-anchor="middle" x="59.842" y="-604.5" font-family="Helvetica,sans-Serif" font-size="10.00" fill="#000000">author (string) </text>
<polyline fill="none" stroke="#000000" points="0,-597.5 119.684,-597.5 "/>
<text text-anchor="middle" x="59.842" y="-584.5" font-family="Helvetica,sans-Serif" font-size="10.00" fill="#000000">title (string) </text>
<polyline fill="none" stroke="#000000" points="0,-577.5 119.684,-577.5 "/>
<text text-anchor="middle" x="59.842" y="-564.5" font-family="Helvetica,sans-Serif" font-size="10.00" fill="#000000">type (string) </text>
<polyline fill="none" stroke="#000000" points="0,-557.5 119.684,-557.5 "/>
<text text-anchor="middle" x="59.842" y="-544.5" font-family="Helvetica,sans-Serif" font-size="10.00" fill="#000000">ISBN (string) </text>
<polyline fill="none" stroke="#000000" points="0,-537.5 119.684,-537.5 "/>
<text text-anchor="middle" x="59.842" y="-524.5" font-family="Helvetica,sans-Serif" font-size="10.00" fill="#000000">description</text>
<text text-anchor="middle" x="59.842" y="-512.5" font-family="Helvetica,sans-Serif" font-size="10.00" fill="#000000">(string)</text>
</g>
<!-- A3&#45;&gt;A0 -->
<g id="edge1" class="edge">
<title>A3&#45;&gt;A0</title>
<path fill="none" stroke="#000000" d="M119.1555,-505.4455C152.1103,-454.2996 190.3049,-395.0216 209.856,-364.6783"/>
<text text-anchor="middle" x="207.1434" y="-381.4935" font-family="Helvetica,sans-Serif" font-size="10.00" fill="#000000">1</text>
<text text-anchor="middle" x="121.868" y="-482.6303" font-family="Helvetica,sans-Serif" font-size="10.00" fill="#000000">1</text>
</g>
<!-- A4 -->
<g id="node5" class="node">
<title>A4</title>
<polygon fill="none" stroke="#000000" points="0,-354.5 0,-486.5 119.684,-486.5 119.684,-354.5 0,-354.5"/>
<text text-anchor="middle" x="59.842" y="-473.5" font-family="Helvetica,sans-Serif" font-size="10.00" fill="#000000">Video</text>
<polyline fill="none" stroke="#000000" points="0,-466.5 119.684,-466.5 "/>
<text text-anchor="middle" x="59.842" y="-453.5" font-family="Helvetica,sans-Serif" font-size="10.00" fill="#000000">id (PK) </text>
<polyline fill="none" stroke="#000000" points="0,-446.5 119.684,-446.5 "/>
<text text-anchor="middle" x="59.842" y="-433.5" font-family="Helvetica,sans-Serif" font-size="10.00" fill="#000000">Recommendation_id</text>
<text text-anchor="middle" x="59.842" y="-421.5" font-family="Helvetica,sans-Serif" font-size="10.00" fill="#000000">(FK) </text>
<polyline fill="none" stroke="#000000" points="0,-414.5 119.684,-414.5 "/>
<text text-anchor="middle" x="59.842" y="-401.5" font-family="Helvetica,sans-Serif" font-size="10.00" fill="#000000">title (string) </text>
<polyline fill="none" stroke="#000000" points="0,-394.5 119.684,-394.5 "/>
<text text-anchor="middle" x="59.842" y="-381.5" font-family="Helvetica,sans-Serif" font-size="10.00" fill="#000000">url (string) </text>
<polyline fill="none" stroke="#000000" points="0,-374.5 119.684,-374.5 "/>
<text text-anchor="middle" x="59.842" y="-361.5" font-family="Helvetica,sans-Serif" font-size="10.00" fill="#000000">comment (string)</text>
</g>
<!-- A4&#45;&gt;A0 -->
<g id="edge2" class="edge">
<title>A4&#45;&gt;A0</title>
<path fill="none" stroke="#000000" d="M120.0798,-392.4163C139.9425,-383.1561 161.6172,-373.0511 179.9197,-364.5182"/>
<text text-anchor="middle" x="167.0627" y="-376.8381" font-family="Helvetica,sans-Serif" font-size="10.00" fill="#000000">1</text>
<text text-anchor="middle" x="132.9367" y="-374.0964" font-family="Helvetica,sans-Serif" font-size="10.00" fill="#000000">1</text>
</g>
<!-- A5 -->
<g id="node6" class="node">
<title>A5</title>
<polygon fill="none" stroke="#000000" points="0,-203.5 0,-335.5 119.684,-335.5 119.684,-203.5 0,-203.5"/>
<text text-anchor="middle" x="59.842" y="-322.5" font-family="Helvetica,sans-Serif" font-size="10.00" fill="#000000">Blogpost</text>
<polyline fill="none" stroke="#000000" points="0,-315.5 119.684,-315.5 "/>
<text text-anchor="middle" x="59.842" y="-302.5" font-family="Helvetica,sans-Serif" font-size="10.00" fill="#000000">id (PK) </text>
<polyline fill="none" stroke="#000000" points="0,-295.5 119.684,-295.5 "/>
<text text-anchor="middle" x="59.842" y="-282.5" font-family="Helvetica,sans-Serif" font-size="10.00" fill="#000000">Recommendation_id</text>
<text text-anchor="middle" x="59.842" y="-270.5" font-family="Helvetica,sans-Serif" font-size="10.00" fill="#000000">(FK) </text>
<polyline fill="none" stroke="#000000" points="0,-263.5 119.684,-263.5 "/>
<text text-anchor="middle" x="59.842" y="-250.5" font-family="Helvetica,sans-Serif" font-size="10.00" fill="#000000">title (string) </text>
<polyline fill="none" stroke="#000000" points="0,-243.5 119.684,-243.5 "/>
<text text-anchor="middle" x="59.842" y="-230.5" font-family="Helvetica,sans-Serif" font-size="10.00" fill="#000000">writer (string) </text>
<polyline fill="none" stroke="#000000" points="0,-223.5 119.684,-223.5 "/>
<text text-anchor="middle" x="59.842" y="-210.5" font-family="Helvetica,sans-Serif" font-size="10.00" fill="#000000">url (string)</text>
</g>
<!-- A5&#45;&gt;A0 -->
<g id="edge3" class="edge">
<title>A5&#45;&gt;A0</title>
<path fill="none" stroke="#000000" d="M120.0798,-297.2141C139.6704,-306.2274 161.0237,-316.0516 179.1656,-324.3983"/>
<text text-anchor="middle" x="159.1659" y="-321.5009" font-family="Helvetica,sans-Serif" font-size="10.00" fill="#000000">1</text>
<text text-anchor="middle" x="140.0795" y="-294.1116" font-family="Helvetica,sans-Serif" font-size="10.00" fill="#000000">1</text>
</g>
<!-- A6 -->
<g id="node7" class="node">
<title>A6</title>
<polygon fill="none" stroke="#000000" points="0,-.5 0,-184.5 119.684,-184.5 119.684,-.5 0,-.5"/>
<text text-anchor="middle" x="59.842" y="-171.5" font-family="Helvetica,sans-Serif" font-size="10.00" fill="#000000">Podcast</text>
<polyline fill="none" stroke="#000000" points="0,-164.5 119.684,-164.5 "/>
<text text-anchor="middle" x="59.842" y="-151.5" font-family="Helvetica,sans-Serif" font-size="10.00" fill="#000000">id (PK)</text>
<polyline fill="none" stroke="#000000" points="0,-144.5 119.684,-144.5 "/>
<text text-anchor="middle" x="59.842" y="-131.5" font-family="Helvetica,sans-Serif" font-size="10.00" fill="#000000">Recommendation_id</text>
<text text-anchor="middle" x="59.842" y="-119.5" font-family="Helvetica,sans-Serif" font-size="10.00" fill="#000000">(FK) </text>
<polyline fill="none" stroke="#000000" points="0,-112.5 119.684,-112.5 "/>
<text text-anchor="middle" x="59.842" y="-99.5" font-family="Helvetica,sans-Serif" font-size="10.00" fill="#000000">author (string)</text>
<polyline fill="none" stroke="#000000" points="0,-92.5 119.684,-92.5 "/>
<text text-anchor="middle" x="59.842" y="-79.5" font-family="Helvetica,sans-Serif" font-size="10.00" fill="#000000">title (string)</text>
<polyline fill="none" stroke="#000000" points="0,-72.5 119.684,-72.5 "/>
<text text-anchor="middle" x="59.842" y="-59.5" font-family="Helvetica,sans-Serif" font-size="10.00" fill="#000000">description</text>
<text text-anchor="middle" x="59.842" y="-47.5" font-family="Helvetica,sans-Serif" font-size="10.00" fill="#000000">(string)</text>
<polyline fill="none" stroke="#000000" points="0,-40.5 119.684,-40.5 "/>
<text text-anchor="middle" x="59.842" y="-27.5" font-family="Helvetica,sans-Serif" font-size="10.00" fill="#000000">url (string) </text>
<polyline fill="none" stroke="#000000" points="0,-20.5 119.684,-20.5 "/>
<text text-anchor="middle" x="59.842" y="-7.5" font-family="Helvetica,sans-Serif" font-size="10.00" fill="#000000">date (timestamp)</text>
</g>
<!-- A6&#45;&gt;A0 -->
<g id="edge4" class="edge">
<title>A6&#45;&gt;A0</title>
<path fill="none" stroke="#000000" d="M119.3863,-184.5475C152.3111,-235.4447 190.4027,-294.3292 209.8961,-324.4634"/>
<text text-anchor="middle" x="192.9539" y="-310.8349" font-family="Helvetica,sans-Serif" font-size="10.00" fill="#000000">1</text>
<text text-anchor="middle" x="136.3284" y="-192.176" font-family="Helvetica,sans-Serif" font-size="10.00" fill="#000000">1</text>
</g>
<!-- A7 -->
<g id="node8" class="node">
<title>A7</title>
<polygon fill="none" stroke="#000000" points="7.509,-708.5 7.509,-788.5 112.175,-788.5 112.175,-708.5 7.509,-708.5"/>
<text text-anchor="middle" x="59.842" y="-775.5" font-family="Helvetica,sans-Serif" font-size="10.00" fill="#000000">User</text>
<polyline fill="none" stroke="#000000" points="7.509,-768.5 112.175,-768.5 "/>
<text text-anchor="middle" x="59.842" y="-755.5" font-family="Helvetica,sans-Serif" font-size="10.00" fill="#000000">id (PK) </text>
<polyline fill="none" stroke="#000000" points="7.509,-748.5 112.175,-748.5 "/>
<text text-anchor="middle" x="59.842" y="-735.5" font-family="Helvetica,sans-Serif" font-size="10.00" fill="#000000">email (string) </text>
<polyline fill="none" stroke="#000000" points="7.509,-728.5 112.175,-728.5 "/>
<text text-anchor="middle" x="59.842" y="-715.5" font-family="Helvetica,sans-Serif" font-size="10.00" fill="#000000">password (string)</text>
</g>
<!-- A8&#45;&gt;A1 -->
<g id="edge6" class="edge">
<title>A8&#45;&gt;A1</title>
<path fill="none" stroke="#000000" d="M465.4489,-390.5C484.7654,-390.5 505.3907,-390.5 522.9291,-390.5"/>
<text text-anchor="middle" x="504.803" y="-395.9524" font-family="Helvetica,sans-Serif" font-size="10.00" fill="#000000">1</text>
<text text-anchor="middle" x="483.5751" y="-379.0476" font-family="Helvetica,sans-Serif" font-size="10.00" fill="#000000">*</text>
</g>
<!-- A9&#45;&gt;A2 -->
<g id="edge8" class="edge">
<title>A9&#45;&gt;A2</title>
<path fill="none" stroke="#000000" d="M473.1762,-299.5C490.117,-299.5 507.6019,-299.5 522.7863,-299.5"/>
<text text-anchor="middle" x="504.6601" y="-304.9524" font-family="Helvetica,sans-Serif" font-size="10.00" fill="#000000">1</text>
<text text-anchor="middle" x="491.3023" y="-288.0476" font-family="Helvetica,sans-Serif" font-size="10.00" fill="#000000">*</text>
</g>
</g>
</svg>
