<?xml version="1.0" encoding="UTF-8" standalone="no"?>
<!DOCTYPE svg PUBLIC "-//W3C//DTD SVG 1.1//EN"
 "http://www.w3.org/Graphics/SVG/1.1/DTD/svg11.dtd">
<!-- Generated by graphviz version 2.40.1 (20161225.0304)
 -->
<!-- Title: G Pages: 1 -->
<svg width="383pt" height="689pt"
 viewBox="0.00 0.00 382.58 689.00" xmlns="http://www.w3.org/2000/svg" xmlns:xlink="http://www.w3.org/1999/xlink">
<g id="graph0" class="graph" transform="scale(1 1) rotate(0) translate(4 685)">
<title>G</title>
<polygon fill="#ffffff" stroke="transparent" points="-4,4 -4,-685 378.583,-685 378.583,4 -4,4"/>
<!-- A0 -->
<g id="node1" class="node">
<title>A0</title>
<polygon fill="none" stroke="#000000" points="157.994,-257.5 157.994,-297.5 222.678,-297.5 222.678,-257.5 157.994,-257.5"/>
<text text-anchor="middle" x="190.336" y="-284.5" font-family="Helvetica,sans-Serif" font-size="10.00" fill="#000000">Ehdotus</text>
<polyline fill="none" stroke="#000000" points="157.994,-277.5 222.678,-277.5 "/>
<text text-anchor="middle" x="190.336" y="-264.5" font-family="Helvetica,sans-Serif" font-size="10.00" fill="#000000">id (PK)</text>
</g>
<!-- A1 -->
<g id="node2" class="node">
<title>A1</title>
<polygon fill="none" stroke="#000000" points="272.678,-287.5 272.678,-367.5 374.583,-367.5 374.583,-287.5 272.678,-287.5"/>
<text text-anchor="middle" x="323.6305" y="-354.5" font-family="Helvetica,sans-Serif" font-size="10.00" fill="#000000">Tag</text>
<polyline fill="none" stroke="#000000" points="272.678,-347.5 374.583,-347.5 "/>
<text text-anchor="middle" x="323.6305" y="-334.5" font-family="Helvetica,sans-Serif" font-size="10.00" fill="#000000">id (PK) </text>
<polyline fill="none" stroke="#000000" points="272.678,-327.5 374.583,-327.5 "/>
<text text-anchor="middle" x="323.6305" y="-314.5" font-family="Helvetica,sans-Serif" font-size="10.00" fill="#000000">ehdotus_id (FK) </text>
<polyline fill="none" stroke="#000000" points="272.678,-307.5 374.583,-307.5 "/>
<text text-anchor="middle" x="323.6305" y="-294.5" font-family="Helvetica,sans-Serif" font-size="10.00" fill="#000000">nimi (string)</text>
</g>
<!-- A0&#45;&gt;A1 -->
<g id="edge5" class="edge">
<title>A0&#45;&gt;A1</title>
<path fill="none" stroke="#000000" d="M222.9435,-289.7314C237.8958,-295.3401 255.9726,-302.1209 272.6596,-308.3803"/>
<text text-anchor="middle" x="252.7196" y="-306.9281" font-family="Helvetica,sans-Serif" font-size="10.00" fill="#000000">*</text>
<text text-anchor="middle" x="242.8835" y="-285.1836" font-family="Helvetica,sans-Serif" font-size="10.00" fill="#000000">*</text>
</g>
<!-- A2 -->
<g id="node3" class="node">
<title>A2</title>
<polygon fill="none" stroke="#000000" points="272.678,-188.5 272.678,-268.5 374.583,-268.5 374.583,-188.5 272.678,-188.5"/>
<text text-anchor="middle" x="323.6305" y="-255.5" font-family="Helvetica,sans-Serif" font-size="10.00" fill="#000000">Kurssi</text>
<polyline fill="none" stroke="#000000" points="272.678,-248.5 374.583,-248.5 "/>
<text text-anchor="middle" x="323.6305" y="-235.5" font-family="Helvetica,sans-Serif" font-size="10.00" fill="#000000">id (PK) </text>
<polyline fill="none" stroke="#000000" points="272.678,-228.5 374.583,-228.5 "/>
<text text-anchor="middle" x="323.6305" y="-215.5" font-family="Helvetica,sans-Serif" font-size="10.00" fill="#000000">ehdotus_id (FK) </text>
<polyline fill="none" stroke="#000000" points="272.678,-208.5 374.583,-208.5 "/>
<text text-anchor="middle" x="323.6305" y="-195.5" font-family="Helvetica,sans-Serif" font-size="10.00" fill="#000000">nimi (string)</text>
</g>
<!-- A0&#45;&gt;A2 -->
<g id="edge6" class="edge">
<title>A0&#45;&gt;A2</title>
<path fill="none" stroke="#000000" d="M222.9435,-265.5133C237.8958,-260.0167 255.9726,-253.3715 272.6596,-247.2373"/>
<text text-anchor="middle" x="258.5629" y="-258.4247" font-family="Helvetica,sans-Serif" font-size="10.00" fill="#000000">*</text>
<text text-anchor="middle" x="237.0402" y="-248.3258" font-family="Helvetica,sans-Serif" font-size="10.00" fill="#000000">*</text>
</g>
<!-- A3 -->
<g id="node4" class="node">
<title>A3</title>
<polygon fill="none" stroke="#000000" points="3.0445,-429.5 3.0445,-581.5 104.9495,-581.5 104.9495,-429.5 3.0445,-429.5"/>
<text text-anchor="middle" x="53.997" y="-568.5" font-family="Helvetica,sans-Serif" font-size="10.00" fill="#000000">Kirja</text>
<polyline fill="none" stroke="#000000" points="3.0445,-561.5 104.9495,-561.5 "/>
<text text-anchor="middle" x="53.997" y="-548.5" font-family="Helvetica,sans-Serif" font-size="10.00" fill="#000000">id (PK) </text>
<polyline fill="none" stroke="#000000" points="3.0445,-541.5 104.9495,-541.5 "/>
<text text-anchor="middle" x="53.997" y="-528.5" font-family="Helvetica,sans-Serif" font-size="10.00" fill="#000000">ehdotus_id (FK) </text>
<polyline fill="none" stroke="#000000" points="3.0445,-521.5 104.9495,-521.5 "/>
<text text-anchor="middle" x="53.997" y="-508.5" font-family="Helvetica,sans-Serif" font-size="10.00" fill="#000000">kirjoittaja</text>
<text text-anchor="middle" x="53.997" y="-496.5" font-family="Helvetica,sans-Serif" font-size="10.00" fill="#000000">(string) </text>
<polyline fill="none" stroke="#000000" points="3.0445,-489.5 104.9495,-489.5 "/>
<text text-anchor="middle" x="53.997" y="-476.5" font-family="Helvetica,sans-Serif" font-size="10.00" fill="#000000">otsikko (string) </text>
<polyline fill="none" stroke="#000000" points="3.0445,-469.5 104.9495,-469.5 "/>
<text text-anchor="middle" x="53.997" y="-456.5" font-family="Helvetica,sans-Serif" font-size="10.00" fill="#000000">tyyppi (string) </text>
<polyline fill="none" stroke="#000000" points="3.0445,-449.5 104.9495,-449.5 "/>
<text text-anchor="middle" x="53.997" y="-436.5" font-family="Helvetica,sans-Serif" font-size="10.00" fill="#000000">ISBN (string)</text>
</g>
<!-- A3&#45;&gt;A0 -->
<g id="edge1" class="edge">
<title>A3&#45;&gt;A0</title>
<path fill="none" stroke="#000000" d="M102.724,-429.1422C104.5123,-426.2301 106.2742,-423.3419 107.994,-420.5 134.2466,-377.1179 163.5597,-325.365 179.1514,-297.5551"/>
<text text-anchor="middle" x="177.6425" y="-314.4981" font-family="Helvetica,sans-Serif" font-size="10.00" fill="#000000">1</text>
<text text-anchor="middle" x="105.0011" y="-406.2723" font-family="Helvetica,sans-Serif" font-size="10.00" fill="#000000">1</text>
</g>
<!-- A4 -->
<g id="node5" class="node">
<title>A4</title>
<polygon fill="none" stroke="#000000" points="0,-290.5 0,-410.5 107.994,-410.5 107.994,-290.5 0,-290.5"/>
<text text-anchor="middle" x="53.997" y="-397.5" font-family="Helvetica,sans-Serif" font-size="10.00" fill="#000000">Video</text>
<polyline fill="none" stroke="#000000" points="0,-390.5 107.994,-390.5 "/>
<text text-anchor="middle" x="53.997" y="-377.5" font-family="Helvetica,sans-Serif" font-size="10.00" fill="#000000">id (PK) </text>
<polyline fill="none" stroke="#000000" points="0,-370.5 107.994,-370.5 "/>
<text text-anchor="middle" x="53.997" y="-357.5" font-family="Helvetica,sans-Serif" font-size="10.00" fill="#000000">ehdotus_id (FK) </text>
<polyline fill="none" stroke="#000000" points="0,-350.5 107.994,-350.5 "/>
<text text-anchor="middle" x="53.997" y="-337.5" font-family="Helvetica,sans-Serif" font-size="10.00" fill="#000000">otsikko (string) </text>
<polyline fill="none" stroke="#000000" points="0,-330.5 107.994,-330.5 "/>
<text text-anchor="middle" x="53.997" y="-317.5" font-family="Helvetica,sans-Serif" font-size="10.00" fill="#000000">url (string) </text>
<polyline fill="none" stroke="#000000" points="0,-310.5 107.994,-310.5 "/>
<text text-anchor="middle" x="53.997" y="-297.5" font-family="Helvetica,sans-Serif" font-size="10.00" fill="#000000">kommentti (string)</text>
</g>
<!-- A4&#45;&gt;A0 -->
<g id="edge2" class="edge">
<title>A4&#45;&gt;A0</title>
<path fill="none" stroke="#000000" d="M108.2735,-321.4387C125.056,-312.4529 143.0118,-302.8388 157.835,-294.902"/>
<text text-anchor="middle" x="145.8451" y="-307.9095" font-family="Helvetica,sans-Serif" font-size="10.00" fill="#000000">1</text>
<text text-anchor="middle" x="120.2635" y="-302.4312" font-family="Helvetica,sans-Serif" font-size="10.00" fill="#000000">1</text>
</g>
<!-- A5 -->
<g id="node6" class="node">
<title>A5</title>
<polygon fill="none" stroke="#000000" points="3.0445,-139.5 3.0445,-271.5 104.9495,-271.5 104.9495,-139.5 3.0445,-139.5"/>
<text text-anchor="middle" x="53.997" y="-258.5" font-family="Helvetica,sans-Serif" font-size="10.00" fill="#000000">Blogipostaus</text>
<polyline fill="none" stroke="#000000" points="3.0445,-251.5 104.9495,-251.5 "/>
<text text-anchor="middle" x="53.997" y="-238.5" font-family="Helvetica,sans-Serif" font-size="10.00" fill="#000000">id (PK) </text>
<polyline fill="none" stroke="#000000" points="3.0445,-231.5 104.9495,-231.5 "/>
<text text-anchor="middle" x="53.997" y="-218.5" font-family="Helvetica,sans-Serif" font-size="10.00" fill="#000000">ehdotus_id (FK) </text>
<polyline fill="none" stroke="#000000" points="3.0445,-211.5 104.9495,-211.5 "/>
<text text-anchor="middle" x="53.997" y="-198.5" font-family="Helvetica,sans-Serif" font-size="10.00" fill="#000000">otsikko (string) </text>
<polyline fill="none" stroke="#000000" points="3.0445,-191.5 104.9495,-191.5 "/>
<text text-anchor="middle" x="53.997" y="-178.5" font-family="Helvetica,sans-Serif" font-size="10.00" fill="#000000">kirjoittaja</text>
<text text-anchor="middle" x="53.997" y="-166.5" font-family="Helvetica,sans-Serif" font-size="10.00" fill="#000000">(string) </text>
<polyline fill="none" stroke="#000000" points="3.0445,-159.5 104.9495,-159.5 "/>
<text text-anchor="middle" x="53.997" y="-146.5" font-family="Helvetica,sans-Serif" font-size="10.00" fill="#000000">url (string)</text>
</g>
<!-- A5&#45;&gt;A0 -->
<g id="edge3" class="edge">
<title>A5&#45;&gt;A0</title>
<path fill="none" stroke="#000000" d="M105.1525,-232.515C122.8336,-241.8523 142.1459,-252.0511 157.9053,-260.3735"/>
<text text-anchor="middle" x="137.9299" y="-256.3832" font-family="Helvetica,sans-Serif" font-size="10.00" fill="#000000">1</text>
<text text-anchor="middle" x="125.128" y="-230.5053" font-family="Helvetica,sans-Serif" font-size="10.00" fill="#000000">1</text>
</g>
<!-- A6 -->
<g id="node7" class="node">
<title>A6</title>
<polygon fill="none" stroke="#000000" points="3.0445,-.5 3.0445,-120.5 104.9495,-120.5 104.9495,-.5 3.0445,-.5"/>
<text text-anchor="middle" x="53.997" y="-107.5" font-family="Helvetica,sans-Serif" font-size="10.00" fill="#000000">Podcast</text>
<polyline fill="none" stroke="#000000" points="3.0445,-100.5 104.9495,-100.5 "/>
<text text-anchor="middle" x="53.997" y="-87.5" font-family="Helvetica,sans-Serif" font-size="10.00" fill="#000000">id (PK)</text>
<polyline fill="none" stroke="#000000" points="3.0445,-80.5 104.9495,-80.5 "/>
<text text-anchor="middle" x="53.997" y="-67.5" font-family="Helvetica,sans-Serif" font-size="10.00" fill="#000000">ehdotus_id (FK) </text>
<polyline fill="none" stroke="#000000" points="3.0445,-60.5 104.9495,-60.5 "/>
<text text-anchor="middle" x="53.997" y="-47.5" font-family="Helvetica,sans-Serif" font-size="10.00" fill="#000000">author (string)</text>
<polyline fill="none" stroke="#000000" points="3.0445,-40.5 104.9495,-40.5 "/>
<text text-anchor="middle" x="53.997" y="-27.5" font-family="Helvetica,sans-Serif" font-size="10.00" fill="#000000">otsikko (string)</text>
<polyline fill="none" stroke="#000000" points="3.0445,-20.5 104.9495,-20.5 "/>
<text text-anchor="middle" x="53.997" y="-7.5" font-family="Helvetica,sans-Serif" font-size="10.00" fill="#000000">kuvaus (string)</text>
</g>
<!-- A6&#45;&gt;A0 -->
<g id="edge4" class="edge">
<title>A6&#45;&gt;A0</title>
<path fill="none" stroke="#000000" d="M101.3833,-120.8074C103.662,-124.0547 105.8789,-127.2985 107.994,-130.5 136.8564,-174.1879 165.6141,-228.6503 180.3025,-257.4604"/>
<text text-anchor="middle" x="164.5036" y="-242.1969" font-family="Helvetica,sans-Serif" font-size="10.00" fill="#000000">1</text>
<text text-anchor="middle" x="118.7017" y="-127.8111" font-family="Helvetica,sans-Serif" font-size="10.00" fill="#000000">1</text>
</g>
<!-- A7 -->
<g id="node8" class="node">
<title>A7</title>
<polygon fill="none" stroke="#000000" points="1.664,-600.5 1.664,-680.5 106.33,-680.5 106.33,-600.5 1.664,-600.5"/>
<text text-anchor="middle" x="53.997" y="-667.5" font-family="Helvetica,sans-Serif" font-size="10.00" fill="#000000">Kayttaja</text>
<polyline fill="none" stroke="#000000" points="1.664,-660.5 106.33,-660.5 "/>
<text text-anchor="middle" x="53.997" y="-647.5" font-family="Helvetica,sans-Serif" font-size="10.00" fill="#000000">id (PK) </text>
<polyline fill="none" stroke="#000000" points="1.664,-640.5 106.33,-640.5 "/>
<text text-anchor="middle" x="53.997" y="-627.5" font-family="Helvetica,sans-Serif" font-size="10.00" fill="#000000">email (string) </text>
<polyline fill="none" stroke="#000000" points="1.664,-620.5 106.33,-620.5 "/>
<text text-anchor="middle" x="53.997" y="-607.5" font-family="Helvetica,sans-Serif" font-size="10.00" fill="#000000">password (string)</text>
</g>
</g>
</svg>
